<svg class="icon" viewBox="0 0 1203 1024" xmlns="http://www.w3.org/2000/svg"><path fill="#333" d="M1167.926 0H816.37C750.305 0 686.6 23.594 639.411 68.424c-16.516 14.157-28.313 33.032-40.11 51.908-11.798-18.876-23.595-35.392-40.111-51.908C514.359 23.594 450.654 0 384.589 0H33.033C14.157 0 0 14.157 0 33.032v882.433c0 18.876 14.157 33.033 33.032 33.033h316.166c14.157 0 25.954 0 40.11 2.36 14.157 2.359 25.955 7.077 37.752 11.796l160.442 58.987c4.72 2.359 7.079 2.359 11.798 2.359s7.078 0 11.797-2.36l153.364-56.626c14.157-4.72 30.673-9.438 44.83-11.797 14.156-2.36 30.672-4.72 47.188-4.72h309.088c18.875 0 33.032-14.156 33.032-33.032V33.032C1203.318 14.157 1186.802 0 1167.926 0zm-766.82 887.152c-16.516-2.36-35.392-4.719-51.908-4.719H66.065V63.705H384.59c49.548 0 94.378 18.876 129.77 51.908 35.391 33.032 54.267 75.502 54.267 122.691v707.834l-115.613-42.47c-16.516-7.078-33.032-11.797-51.908-16.516zm733.788-2.36H858.839c-21.235 0-40.11 2.36-58.986 4.72-18.876 4.718-37.752 9.437-56.627 16.516l-108.535 37.75V235.946c0-47.19 18.876-89.66 54.268-122.692 35.391-33.032 80.22-51.907 129.77-51.907h318.524l-2.359 823.447z"/></svg>