<svg class="icon" viewBox="0 0 1024 1024" xmlns="http://www.w3.org/2000/svg"><defs><style/></defs><path d="M510.977 248.351c-29.062 0-52.495 23.535-52.495 52.494s23.536 52.495 52.495 52.495c28.959 0 52.494-23.536 52.494-52.495s-23.535-52.494-52.494-52.494zm0-183.782c-246.51 0-446.357 199.848-446.357 446.357 0 246.509 199.848 446.356 446.357 446.356 246.509 0 446.356-199.847 446.356-446.356 0-246.51-199.847-446.357-446.356-446.357zm0 840.218c-217.55 0-393.862-176.311-393.862-393.861 0-217.55 176.312-393.862 393.862-393.862 217.448 0 393.862 176.311 393.862 393.862 0 217.55-176.414 393.861-393.862 393.861zm0-498.85c-29.062 0-52.495 23.535-52.495 52.494v262.575c0 29.061 23.536 52.494 52.495 52.494 28.959 0 52.494-23.535 52.494-52.494V458.43c0-29.061-23.535-52.494-52.494-52.494z"/></svg>