<svg class="icon" viewBox="0 0 1024 1024" xmlns="http://www.w3.org/2000/svg"><path fill="#8a8a8a" d="M477.867 747.52c0-51.2 13.653-95.573 37.546-136.533 0-6.827 0-17.067 6.827-27.307 27.307-37.547 44.373-78.507 44.373-92.16 0 0 40.96-34.133 44.374-81.92 3.413-51.2-10.24-51.2-10.24-51.2 17.066-54.613 23.893-259.413-105.814-232.107-20.48-44.373-157.013-78.506-221.866 37.547-30.72 58.027-44.374 133.12-20.48 197.973 0 3.414-10.24-3.413-10.24 23.894-3.414 27.306 10.24 68.266 23.893 88.746 6.827 3.414 17.067 10.24 23.893 13.654 0 0 6.827 51.2 47.787 98.986 10.24 37.547-27.307 58.027-27.307 58.027-122.88 23.893-235.52 92.16-235.52 167.253V870.4c0 81.92 187.734 98.987 354.987 98.987 51.2 0 102.4-3.414 150.187-13.654-64.854-51.2-102.4-122.88-102.4-208.213zm256-215.04c-119.467 0-215.04 95.573-215.04 215.04s95.573 215.04 215.04 215.04 215.04-95.573 215.04-215.04-95.574-215.04-215.04-215.04zm119.466 153.6L737.28 856.747c-6.827 6.826-13.653 13.653-20.48 13.653s-17.067-3.413-20.48-10.24l-68.267-68.267c-6.826-6.826-6.826-20.48 0-27.306l17.067-17.067c6.827-6.827 20.48-6.827 27.307 0l37.546 37.547 88.747-133.12c6.827-10.24 20.48-10.24 27.307-6.827l20.48 13.653c3.413 3.414 6.826 6.827 10.24 13.654 0 3.413 0 10.24-3.414 13.653z"/></svg>