<svg class="icon" viewBox="0 0 1024 1024" xmlns="http://www.w3.org/2000/svg"><path fill="#8a8a8a" d="M904.73 568.55a263.364 263.364 0 0 0-138.915-39.347 263.51 263.51 0 0 0-167.227 59.529H276.309a13.227 13.227 0 0 0-13.226 13.226v39.697c0 7.305 5.922 13.227 13.226 13.227h264.26a263.364 263.364 0 0 0-39.355 138.923c0 48.188 12.885 93.372 35.405 132.292H137.387a26.453 26.453 0 0 1-26.462-26.453V26.454A26.453 26.453 0 0 1 137.387 0h740.88a26.453 26.453 0 0 1 26.463 26.453V568.55zM276.31 271.215a13.227 13.227 0 0 0-13.227 13.227v39.688c0 7.313 5.922 13.227 13.226 13.227h463.045a13.227 13.227 0 0 0 13.226-13.227v-39.68a13.227 13.227 0 0 0-13.226-13.235H276.309zM998.143 975.47l-48.265 48.282-72.925-72.926a195.396 195.396 0 0 1-117.487 39.04c-108.4 0-196.267-87.868-196.267-196.267s87.868-196.267 196.267-196.267S955.733 685.201 955.733 793.6c0 39.671-11.776 76.587-32 107.46l74.411 74.41zM276.309 429.986a13.227 13.227 0 0 0-13.226 13.227V482.9c0 7.305 5.922 13.227 13.226 13.227h463.045a13.227 13.227 0 0 0 13.226-13.227v-39.688a13.227 13.227 0 0 0-13.226-13.227H276.309zM759.467 921.6c70.69 0 128-57.31 128-128s-57.31-128-128-128-128 57.31-128 128 57.31 128 128 128z"/></svg>