<svg class="icon" viewBox="0 0 1024 1024" xmlns="http://www.w3.org/2000/svg"><path fill="#8a8a8a" d="M512 1022C230.305 1022 2 793.596 2 512S230.305 2 512 2c75.206 0 146.626 16.396 210.871 45.442 24.804 17.89 5.282 47.692-16.951 37.692C646.771 58.28 581.13 43.298 512 43.298 253.095 43.298 43.198 253.095 43.198 512c0 258.903 209.897 468.7 468.802 468.7 258.904 0 468.76-209.837 468.76-468.7 0-35.562-3.943-70.264-11.472-103.634-7.729-36.715 36.935-41.795 40.222-9.104 8.166 36.337 12.49 74.03 12.49 112.738 0 281.596-228.345 510-510 510z"/><path fill="#8a8a8a" d="M766.064 836.11H575.811V690.1H467.295v146.01H269.271V522.538s3.048-14.503 15.081-14.503c14.882 0 16.794 14.503 16.794 14.503v281.696H435.42V658.307h172.286v145.928h126.461V522.538s1.038-14.503 15.541-14.503c16.356 0 16.356 14.503 16.356 14.503V836.11zm-32.612-484.662s-2.151 11.476-16.677 11.476c-11.654 0-15.197-11.476-15.197-11.476V250.864H600.973s-12.396-2.411-12.396-15.558c0-12.354 12.396-16.317 12.396-16.317h132.479v132.459z"/><path fill="#8a8a8a" d="M207.195 537.897s-12.451 9.087-22.033-.499c-9.363-9.362-.478-22.03-.478-22.03L512.04 187.932l327.255 327.356s9.583 11.514-.656 21.774c-8.865 8.864-21.875.755-21.875.755L512.04 233.014 207.195 537.897z"/></svg>