<svg class="icon" viewBox="0 0 1024 1024" xmlns="http://www.w3.org/2000/svg"><path fill="#8a8a8a" d="M419.136 126.464h-168.32c-.512 1.792-12.928 234.368-196.992 349.056 0 0-13.888 9.28-11.52 24.32 1.344 8.256 14.144 5.76 14.144 5.76 55.104-6.208 102.08-22.464 142.016-44.8l-43.008 440.064h130.048l40.448-556.096c72.704-101.376 91.648-213.12 93.184-218.304zm239.68 210.56c24.704-106.048 29.824-179.776 31.616-210.56l-166.336-3.392c-3.264 57.088-3.456 129.344-11.968 213.952h-86.272c-62.592 0-64.192 47.424-64.192 47.424l-1.536 20.352h118.016c27.072 0 20.928 24.192 20.032 29.632C482.368 531.456 456.128 627.264 400 746.24c-22.336 47.104-59.584 112.384-89.216 143.616-3.584 3.776-2.432 9.728 5.504 9.728 8 0 30.656 6.272 66.688-8.64 36.544-14.976 96.192-88.128 121.984-139.392C571.84 619.2 614.144 502.016 641.28 404.736h276.032c59.968 0 63.168-50.624 63.168-50.624l1.408-17.216c.128.128-169.92.128-323.072.128zM790.144 794.88L817.6 460.928H666.624L637.44 786.624s.512 12.992.96 18.752c8.128 92.032 102.464 93.632 102.464 93.632h176c60.416 0 62.784-60.608 62.784-60.608H830.912c-45.696 0-40.768-43.52-40.768-43.52zm165.568-654.784H832.576c-4.224 53.888-50.048 114.432-69.632 138.56l108.928-2.688c3.52-4.224 77.056-50.56 83.84-135.872z"/></svg>