<svg class="icon" viewBox="0 0 1024 1024" xmlns="http://www.w3.org/2000/svg"><path d="M368.445 188.754H424.5l-15.959 63.345V548.1h-52.782V308.664h-27.003v-48.2h11.05c4.904 0 9-4.121 12.277-12.354l16.363-59.356zm276.578 6.37h47.872v52.587c0 18.857-9.539 28.283-28.647 28.283h-31.892v217.922c0 5.048 3.128 7.573 9.4 7.573h54.42v45.02h-86.333c-20.188 0-30.285-8.77-30.285-26.297V276h-36.812l-19.231 213.135c-3.559 39.306-14.183 58.967-31.923 58.967h-65.46v-45.02h28.642c9.006 0 14.182-13.942 15.544-41.825l18.826-185.252h-63.012v-48.205h67.922l4.102-39.04h52.766l-3.686 39.04h91.653c4.09 0 6.134-3.185 6.134-9.559v-23.117z" fill="#231815"/><path d="M959.33 793.764L795.637 493.45a302.06 302.06 0 0 0 26.004-122.982c0-168.54-137.687-305.178-307.553-305.178-169.877 0-307.594 136.638-307.594 305.178 0 44.805 9.728 87.352 27.202 125.67L69.325 793.626a27.607 27.607 0 0 0 2.217 30.095 28.022 28.022 0 0 0 28.57 10.296l140.436-31.949 48.051 132.813a27.955 27.955 0 0 0 24.264 18.294 27.991 27.991 0 0 0 26.716-14.53l143.109-264.566a316.672 316.672 0 0 0 31.406 1.587c9.713 0 19.313-.476 28.805-1.362l146.202 264.54a28.027 28.027 0 0 0 26.716 14.331c10.987-.86 20.465-8.023 24.161-18.294l48.062-132.813 140.436 31.95c10.752 2.575 21.857-1.567 28.503-10.246a27.566 27.566 0 0 0 2.35-30.008zm-639.325 63.641l-35.19-97.28c-4.797-13.225-18.775-20.92-32.583-17.664L148.347 766.08l118.37-214.21a308.009 308.009 0 0 0 158.627 110.868L320.005 857.405zm-57.313-486.937c0-137.534 112.783-249.421 251.402-249.421 138.604 0 251.372 111.887 251.372 249.42S652.703 619.89 514.094 619.89c-138.624 0-251.402-111.888-251.402-249.421zM776.335 742.46a27.873 27.873 0 0 0-32.588 17.664l-35.456 97.992-107.628-194.74A307.994 307.994 0 0 0 762.839 549.97l117.862 216.212-104.366-23.72z" fill="#040000"/></svg>