<?xml version="1.0" standalone="no"?><!DOCTYPE svg PUBLIC "-//W3C//DTD SVG 1.1//EN" "http://www.w3.org/Graphics/SVG/1.1/DTD/svg11.dtd"><svg class="icon" width="200px" height="200.00px" viewBox="0 0 1024 1024" version="1.1" xmlns="http://www.w3.org/2000/svg"><path fill="#8a8a8a" d="M419.136 126.464l-168.32 0C250.304 128.256 237.888 360.832 53.824 475.52c0 0-13.888 9.28-11.52 24.32 1.344 8.256 14.144 5.76 14.144 5.76C111.552 499.392 158.528 483.136 198.464 460.8l-43.008 440.064 130.048 0 40.448-556.096C398.656 243.392 417.6 131.648 419.136 126.464zM658.816 337.024c24.704-106.048 29.824-179.776 31.616-210.56L524.096 123.072C520.832 180.16 520.64 252.416 512.128 337.024c-41.664 0-73.344 0-86.272 0-62.592 0-64.192 47.424-64.192 47.424L360.128 404.8c0 0 43.968 0 118.016 0 27.072 0 20.928 24.192 20.032 29.632C482.368 531.456 456.128 627.264 400 746.24c-22.336 47.104-59.584 112.384-89.216 143.616-3.584 3.776-2.432 9.728 5.504 9.728 8 0 30.656 6.272 66.688-8.64 36.544-14.976 96.192-88.128 121.984-139.392 66.88-132.352 109.184-249.536 136.32-346.816 125.632 0 251.136 0 276.032 0 59.968 0 63.168-50.624 63.168-50.624l1.408-17.216C982.016 337.024 811.968 337.024 658.816 337.024zM790.144 794.88l27.456-333.952-150.976 0-29.184 325.696c0 0 0.512 12.992 0.96 18.752 8.128 92.032 102.464 93.632 102.464 93.632s131.136 0 176 0c60.416 0 62.784-60.608 62.784-60.608s-50.24 0-148.736 0C785.216 838.4 790.144 794.88 790.144 794.88zM955.712 140.096l-123.136 0c-4.224 53.888-50.048 114.432-69.632 138.56l108.928-2.688C875.392 271.744 948.928 225.408 955.712 140.096z" /></svg>