<svg class="icon" viewBox="0 0 1024 1024" xmlns="http://www.w3.org/2000/svg"><path fill="#8a8a8a" d="M23.428 326.715l475.428 182.857c4.25 1.607 8.679 2.428 13.144 2.428s8.892-.821 13.144-2.428l475.428-182.857c14.106-5.43 23.428-19.001 23.428-34.144s-9.322-28.714-23.428-34.143L525.144 75.571a37.028 37.028 0 0 0-26.286 0L23.43 258.428C9.322 263.858 0 277.43 0 292.571s9.322 28.714 23.428 34.144zM512 148.893l373.535 143.678L512 436.25 138.465 292.57 512 148.893zm488.572 548.392l-104.82-40.321-101.894 39.213 91.677 35.252L512 875.107 138.465 731.429l91.679-35.25-101.893-39.214-104.822 40.322C9.322 702.715 0 716.287 0 731.43s9.322 28.714 23.428 34.143L498.856 948.43c4.25 1.607 8.679 2.428 13.144 2.428s8.892-.82 13.144-2.428l475.428-182.857c14.106-5.43 23.428-19.001 23.428-34.143s-9.322-28.714-23.428-34.144zm0-219.428l-104.82-40.322-101.894 39.214L885.535 512 512 655.678 138.465 512l91.679-35.25-101.893-39.213-104.822 40.322C9.322 483.286 0 496.858 0 512s9.322 28.714 23.428 34.143L498.856 729c4.25 1.608 8.679 2.429 13.144 2.429s8.892-.821 13.144-2.429l475.428-182.857c14.106-5.429 23.428-19 23.428-34.143s-9.322-28.714-23.428-34.143z"/></svg>