<svg class="icon" viewBox="0 0 1024 1024" xmlns="http://www.w3.org/2000/svg"><path fill="#8a8a8a" d="M801.348 65.058h-577.3c-30.858 0-55.868 25.01-55.868 55.867v707.66c0 30.857 25.011 55.867 55.868 55.867h270.728v37.245H263.775c-10.28 0-18.624 8.343-18.624 18.622s8.343 18.622 18.624 18.622H761.62c10.28 0 18.622-8.343 18.622-18.622s-8.343-18.622-18.622-18.622h-229.6v-37.245h269.327c30.857 0 55.867-25.01 55.867-55.868V120.925c.001-30.857-25.01-55.867-55.866-55.867zm17.58 726.281c0 30.858-25.01 55.867-55.867 55.867H262.337c-30.859 0-55.868-25.01-55.868-55.867V158.17c0-30.857 25.01-55.867 55.868-55.867H763.06c30.857 0 55.866 25.01 55.866 55.867v633.17zM354.405 139.55c-51.417 0-93.113 41.696-93.113 93.112s41.697 93.113 93.113 93.113 93.112-41.697 93.112-93.113-41.696-93.113-93.112-93.113zm0 148.98c-30.857 0-55.868-25.011-55.868-55.868s25.011-55.867 55.868-55.867c30.858 0 55.867 25.01 55.867 55.867s-25.01 55.867-55.867 55.867z"/></svg>