<svg viewBox="0 0 512 512" xmlns="http://www.w3.org/2000/svg"><path d="M509.601 79.998c.157-35.095-17.643-41.958-44.027-35.324-46.06 15.433-85.952 40.059-121.842 70.648-53.817-17.29-109.999-18.205-168.941 0C134.472 87.785 93.973 67.615 53.29 54.913 12.972 44.166-.097 61.469 2.779 95.186c5.238 40.452 17.271 85.537 40.955 138.566-37.483 127.856 21.502 200.51 126.962 224.572 62.096 14.735 123.117 15.299 182.934 0 102.047-18.771 163.48-127.303 120.818-219.794 21.76-52.03 34.157-104.818 35.153-158.532zM101.657 328.729l-11.881-20.685 48.146-25.727-48.146-25.725 11.881-20.689 86.86 46.414-86.86 46.412zM256 422.19c-40.46 0-73.375-28.305-73.375-63.103h24.179c0 21.934 22.071 39.775 49.196 39.775 27.122 0 49.196-17.849 49.196-39.775h24.179c0 34.786-32.916 63.103-73.375 63.103zm144.139-106.906c-18.871 0-34.17-14.757-34.17-32.963 0-18.213 15.299-32.971 34.17-32.971 18.87 0 34.17 14.758 34.17 32.971 0 18.206-15.3 32.963-34.17 32.963z" fill="#fcc732"/></svg>