<svg viewBox="0 0 512 512" xmlns="http://www.w3.org/2000/svg"><g fill="#fcc732"><path d="M284.265 407.913c12.791 0 23.383-10.824 25.173-24.858h-50.355c1.793 14.034 12.385 24.858 25.182 24.858z"/><path d="M509.601 79.998c.157-35.095-17.643-41.958-44.027-35.324-46.06 15.433-85.952 40.059-121.842 70.648-53.817-17.29-109.999-18.205-168.941 0C134.472 87.785 93.973 67.615 53.29 54.913 12.972 44.166-.097 61.469 2.779 95.186c5.238 40.452 17.271 85.537 40.955 138.566-37.483 127.856 21.502 200.51 126.962 224.572 62.096 14.735 123.117 15.299 182.934 0 102.047-18.771 163.48-127.303 120.818-219.794 21.76-52.03 34.157-104.818 35.153-158.532zM169.799 307.629c0-23.394-16.491-42.434-36.766-42.434s-36.769 19.04-36.769 42.434H71.501v-16.702c6.962-29.577 31.869-51.556 61.532-51.556 35.033 0 63.533 30.615 63.533 68.258h-26.767zm114.46 118.959c-23.389 0-42.622-19.177-44.625-43.533h-56.799V364.38h146.278l.054 18.575c-2.005 24.359-21.519 43.633-44.908 43.633zm141.558-118.959c0-23.394-16.485-42.434-36.768-42.434-20.275 0-36.76 19.04-36.76 42.434h-26.767c0-37.643 28.5-68.258 63.527-68.258 35.03 0 63.535 30.615 63.535 68.258h-26.767z"/></g></svg>