<svg viewBox="0 0 512 512" xmlns="http://www.w3.org/2000/svg"><path d="M509.601 79.998c.157-35.095-17.643-41.958-44.027-35.324-46.06 15.433-85.952 40.059-121.842 70.648-53.817-17.29-109.999-18.205-168.941 0C134.472 87.785 93.973 67.615 53.29 54.913 12.972 44.166-.097 61.469 2.779 95.186c5.238 40.452 17.271 85.537 40.955 138.566-37.483 127.856 21.502 200.51 126.962 224.572 62.096 14.735 123.117 15.299 182.934 0 102.047-18.771 163.48-127.303 120.818-219.794 21.76-52.03 34.157-104.818 35.153-158.532zM180.039 265.086l-25.306 20.695 7.87 31.118c1.39 5.807-5.244 10.421-10.496 7.292l-28.238-16.826-28.239 16.826c-5.398 3.277-12.035-1.484-10.492-7.292l7.87-31.118-25.306-20.695c-4.785-3.87-2.314-11.318 4.004-11.907l33.178-2.388 12.5-29.622c2.472-5.508 10.648-5.508 12.963 0l12.5 29.622 33.178 2.388c6.328.444 8.795 8.033 4.014 11.907zM256 422.19c-40.46 0-73.375-28.305-73.375-63.103h24.179c0 21.934 22.071 39.775 49.196 39.775 27.122 0 49.196-17.849 49.196-39.775h24.179c0 34.786-32.916 63.103-73.375 63.103zm200.384-157.104l-25.31 20.695 7.869 31.118c1.392 5.807-5.243 10.421-10.492 7.292l-28.24-16.826-28.235 16.826c-5.398 3.277-12.038-1.484-10.492-7.292l7.87-31.118-25.306-20.695c-4.793-3.87-2.317-11.318 4.011-11.907l33.167-2.388 12.501-29.622c2.475-5.508 10.649-5.508 12.963 0l12.501 29.622 33.175 2.388c6.332.444 8.8 8.033 4.018 11.907z" fill="#fcc732"/></svg>