<svg viewBox="0 0 512 512" xmlns="http://www.w3.org/2000/svg"><path d="M509.601 79.998c.157-35.095-17.643-41.958-44.027-35.324-46.06 15.433-85.952 40.059-121.842 70.648-53.817-17.29-109.999-18.205-168.941 0C134.472 87.785 93.973 67.615 53.29 54.913 12.972 44.166-.097 61.469 2.779 95.186c5.238 40.452 17.271 85.537 40.955 138.566-37.483 127.856 21.502 200.51 126.962 224.572 62.096 14.735 123.117 15.299 182.934 0 102.047-18.771 163.48-127.303 120.818-219.794 21.76-52.03 34.157-104.818 35.153-158.532zM124.809 314.984c-18.7 0-33.858-14.627-33.858-32.668 0-18.041 15.159-32.668 33.858-32.668 18.703 0 33.86 14.627 33.86 32.668.001 18.041-15.157 32.668-33.86 32.668zm131.193 126.241c-48.234 0-87.331-32.825-87.331-73.309h174.664c-.001 40.484-39.099 73.309-87.333 73.309zM400.14 314.984c-18.699 0-33.86-14.627-33.86-32.668 0-18.041 15.161-32.668 33.86-32.668 18.7 0 33.86 14.627 33.86 32.668 0 18.041-15.161 32.668-33.86 32.668z" fill="#fcc732"/></svg>