<svg viewBox="0 0 512 512" xmlns="http://www.w3.org/2000/svg"><path d="M509.601 79.998c.157-35.095-17.643-41.958-44.027-35.324-46.06 15.433-85.952 40.059-121.842 70.648-53.817-17.29-109.999-18.205-168.941 0C134.472 87.785 93.973 67.615 53.29 54.913 12.972 44.166-.097 61.469 2.779 95.186c5.238 40.452 17.271 85.537 40.955 138.566-37.483 127.856 21.502 200.51 126.962 224.572 62.096 14.735 123.117 15.299 182.934 0 102.047-18.771 163.48-127.303 120.818-219.794 21.76-52.03 34.157-104.818 35.153-158.532zM119.384 315.552v.048c-.044-.026-49.912-26.383-51.383-47.218-1.568-22.203 12.108-30.754 26.001-30.754 9.696 0 21.157 13.13 25.357 21.573 4.195-8.439 15.67-21.604 25.379-21.604 13.893 0 27.57 8.554 26.001 30.757-1.463 20.708-50.712 46.858-51.355 47.198zm136.618 125.673c-48.234 0-87.331-32.825-87.331-73.309h174.664c-.001 40.484-39.099 73.309-87.333 73.309zm187.997-172.872c-1.463 20.709-50.715 46.86-51.358 47.2v.048c-.038-.026-49.91-26.383-51.381-47.218-1.57-22.203 12.112-30.754 26.001-30.754 9.698 0 21.159 13.13 25.357 21.573 4.198-8.439 15.67-21.604 25.38-21.604 13.889-.002 27.567 8.552 26.001 30.755z" fill="#fcc732"/></svg>