<svg viewBox="0 0 512 512" xmlns="http://www.w3.org/2000/svg"><path d="M509.601 79.998c.157-35.095-17.643-41.958-44.027-35.324-46.06 15.433-85.952 40.059-121.842 70.648-53.817-17.29-109.999-18.205-168.941 0C134.472 87.785 93.973 67.615 53.29 54.913 12.972 44.166-.097 61.469 2.779 95.186c5.238 40.452 17.271 85.537 40.955 138.566-37.483 127.856 21.502 200.51 126.962 224.572 62.096 14.735 123.117 15.299 182.934 0 102.047-18.771 163.48-127.303 120.818-219.794 21.76-52.03 34.157-104.818 35.153-158.532zM179.039 302.359l-19.423 18.739-27.98-26.996-28.002 26.996-19.419-18.739 27.993-27.001-27.993-26.998 19.419-18.739 28.002 26.997 27.98-26.997 19.423 18.739-27.984 26.997 27.984 27.002zm1.926 110.777c0-34.785 33.59-62.989 75.032-62.989 41.439 0 75.038 28.204 75.038 62.989h-150.07zm248.653-110.777l-19.423 18.739-27.984-26.996-27.989 26.996-19.419-18.739 27.984-27.001-27.984-26.997 19.419-18.739 27.989 26.997 27.984-26.997 19.423 18.739-27.984 26.997 27.984 27.001z" fill="#fcc732"/></svg>