<svg viewBox="0 0 512 512" xmlns="http://www.w3.org/2000/svg"><path d="M509.601 79.998c.157-35.095-17.643-41.958-44.027-35.324-46.06 15.433-85.952 40.059-121.842 70.648-53.817-17.29-109.999-18.205-168.941 0C134.472 87.785 93.973 67.615 53.29 54.913 12.972 44.166-.097 61.469 2.779 95.186c5.238 40.452 17.271 85.537 40.955 138.566-37.483 127.856 21.502 200.51 126.962 224.572 62.096 14.735 123.117 15.299 182.934 0 102.047-18.771 163.48-127.303 120.818-219.794 21.76-52.03 34.157-104.818 35.153-158.532zM89.777 308.044l48.146-25.727-48.146-25.725 11.881-20.689 86.86 46.414-86.86 46.412-11.881-20.685zm166.225 133.181c-48.234 0-87.331-32.825-87.331-73.309h174.664c-.001 40.484-39.099 73.309-87.333 73.309zm144.137-125.941c-18.871 0-34.17-14.757-34.17-32.963 0-18.213 15.299-32.971 34.17-32.971 18.87 0 34.17 14.758 34.17 32.971 0 18.206-15.3 32.963-34.17 32.963z" fill="#fcc732"/></svg>