<svg class="icon" viewBox="0 0 1024 1024" xmlns="http://www.w3.org/2000/svg"><path fill="#8a8a8a" d="M750.4 1012c-8 0-16.8-5.6-20-13.6l-72-181.6-127.2 146.4c-6.4 6.4-16 9.6-24 6.4-8-3.2-13.6-11.2-13.6-20v-640c0-8 5.6-16 12.8-20 7.2-4 16.8-2.4 23.2 4L998.4 720c6.4 6.4 8 16 5.6 24s-11.2 13.6-20 13.6H802.4l74.4 183.2c4 10.4-.8 23.2-11.2 28l-106.4 42.4c-3.2.8-6.4.8-8.8.8zm-85.6-255.2h3.2c7.2.8 13.6 6.4 16.8 13.6L761.6 964l66.4-27.2-76.8-193.6c-3.2-6.4-2.4-13.6 2.4-20 4-6.4 10.4-9.6 17.6-9.6h148l-372-336v493.6L648 764c4.8-5.6 10.4-7.2 16.8-7.2z"/><path fill="#8a8a8a" d="M824.8 7.2H63.2C42.4 7.2 26.4 24 26.4 44v866.4c0 20.8 16.8 36.8 36.8 36.8h329.6L309.6 864H110.4V90.4h667.2v256.8l83.2 83.2V43.2c1.6-20-15.2-36-36-36zM111.2 862.4zm667.2-772z"/></svg>