<svg class="icon" viewBox="0 0 1024 1024" xmlns="http://www.w3.org/2000/svg"><path fill="#8a8a8a" d="M548.785 392.627c-61.337 0-111.171 51.608-111.171 115.337 0 63.659 49.834 115.305 111.171 115.305 61.45 0 111.245-51.646 111.245-115.305 0-63.731-49.794-115.337-111.245-115.337zM882.478 200.57H437.584c0-42.567-33.008-76.795-74.045-76.795h-74.037c-41.037 0-74.043 34.229-74.043 76.795h-74.366c-40.676 0-74.043 34.231-74.043 76.793v461.095c0 42.525 33.367 77.129 74.043 77.129H882.48c40.676 0 74.041-34.604 74.041-77.129V277.363c-.001-42.562-33.366-76.793-74.042-76.793zM548.967 700.058c-102.376 0-185.429-86.141-185.429-192.324 0-105.838 83.054-191.98 185.429-191.98s185.103 86.143 185.103 191.98c0 106.183-82.727 192.324-185.103 192.324z"/></svg>