<svg class="icon" viewBox="0 0 1024 1024" xmlns="http://www.w3.org/2000/svg"><path fill="#8a8a8a" d="M730.688 329.12L432 627.808 293.344 489.12c-12.192-12.192-32-12.192-44.192 0s-12.192 32 0 44.192l156.96 156.96c1.056 1.504 1.696 3.232 3.04 4.576 6.304 6.304 14.592 9.216 22.848 8.992 8.256.192 16.576-2.688 22.88-8.992 1.344-1.344 1.984-3.072 3.04-4.576l316.96-316.96c12.192-12.192 12.192-32 0-44.192-12.224-12.192-32-12.192-44.192 0zM512 0C229.216 0 0 229.216 0 512s229.216 512 512 512c282.752 0 512-229.216 512-512S794.784 0 512 0zm0 960C264.576 960 64 759.424 64 512S264.576 64 512 64s448 200.576 448 448-200.576 448-448 448z"/></svg>