<svg class="icon" viewBox="0 0 1024 1024" xmlns="http://www.w3.org/2000/svg"><path fill="#8a8a8a" d="M140.9 72.5v45h742.4c8.8 0 15.4 4.8 19.4 8.8 8.2 8.2 12.9 20.5 12.9 33.7v520.3c0 23.1-14.8 42.5-32.4 42.5H591.8l-1.2 43.7-3.2 113.5-166.8-146-12.7-11.1H141c-17.6 0-32.4-19.5-32.4-42.5V160c0-23.1 14.8-42.5 32.4-42.5v-45m-.1 0c-42.6 0-77.4 39.2-77.4 87.5v520.3c0 48.2 34.7 87.5 77.4 87.5h250l200.9 176c4.5 4.5 10.1 6.7 15.7 6.7 3.4 0 6.7-1.2 9-2.2 9-4.5 14.6-13.4 14.6-24.7l4.4-155.7h247.8c42.6 0 77.4-39.2 77.4-87.5V160c.1-48.3-34.6-87.5-77.3-87.5H140.9z"/><path fill="#8a8a8a" d="M693.4 378.7H330.8c-12.4 0-22.5-10.1-22.5-22.5s10.1-22.5 22.5-22.5h362.6c12.4 0 22.5 10.1 22.5 22.5s-10.1 22.5-22.5 22.5zm0 157.3H330.8c-12.4 0-22.5-10.1-22.5-22.5s10.1-22.5 22.5-22.5h362.6c12.4 0 22.5 10.1 22.5 22.5 0 12.5-10.1 22.5-22.5 22.5z"/></svg>