<svg class="icon" viewBox="0 0 1024 1024" xmlns="http://www.w3.org/2000/svg"><path fill="#333" d="M943.098 388.291c-3.055-5.038-7.49-9.338-13.134-12.194l-76.22-38.294-70.353-35.368 95.988-191.713c6.45-12.867-4.132-31.243-23.649-41.017-19.516-9.775-40.58-7.256-47.029 5.644l-95.926 191.588-63.57-31.957-98.86-49.683c-.438-.234-.909-.404-1.379-.605-.536-.235-1.008-.47-1.547-.672-.47-.2-.94-.37-1.476-.503-.537-.168-1.043-.37-1.58-.539-.503-.134-1.005-.201-1.512-.336-.538-.102-1.075-.27-1.613-.337-.504-.101-1.005-.134-1.546-.202l-1.612-.201c-.47-.034-1.005 0-1.512-.034-.535 0-1.075-.034-1.579 0-.535 0-1.043.034-1.546.101-.535.034-1.076.034-1.58.102-.502.066-1.005.168-1.512.268-.537.101-1.043.169-1.545.269a79.31 79.31 0 0 0-1.478.403c-.503.134-1.006.268-1.546.436-.47.169-.941.337-1.41.537-.47.17-.975.337-1.478.538-.437.235-.874.47-1.344.672l-1.411.706c-.47.268-.874.537-1.308.806-.439.268-.909.538-1.38.84-.404.301-.806.638-1.21.94-.405.3-.874.638-1.277.974-.403.335-.739.705-1.141 1.076a11.47 11.47 0 0 0-1.142 1.075c-.403.37-.74.806-1.074 1.21-.368.405-.741.772-1.043 1.174-.37.436-.671.908-.974 1.378-.336.404-.638.84-.908 1.277-.303.47-.572.974-.874 1.477-.234.436-.503.807-.704 1.243-23.515 45.719-53.145 88.885-88.55 128.994-.504.572-1.008 1.108-1.478 1.713-22.641 25.462-47.566 49.75-74.743 72.693-70.843 59.793-153.717 107.9-246.331 142.968-13.639 5.176-21.767 18.612-20.76 32.517a32.289 32.289 0 0 0 15.385 29.762L646.546 947.77a32.45 32.45 0 0 0 12.765 4.468 32.288 32.288 0 0 0 18.544 5.877 32.32 32.32 0 0 0 22.64-9.237c78.17-76.725 139.542-162.821 182.44-255.939 43.401-94.124 65.571-190.435 65.907-286.138a32.15 32.15 0 0 0-5.744-18.51zm-118.843 277.61c-36.716 79.647-88.247 153.888-153.316 221.006l-122.813-75.048 77.128-75.447c12.766-12.463 13-32.922.503-45.685-12.498-12.768-32.92-13.002-45.686-.506l-88.819 86.87-144.447-88.279 87.206-61.138c14.647-10.212 18.175-30.37 7.929-45.015-10.212-14.578-30.368-18.14-45.013-7.892l-110.284 77.295-112.5-68.73c77.464-34.87 147.873-78.841 209.884-131.144 22.91-19.383 44.408-39.606 64.397-60.703L844.41 617.627a713.555 713.555 0 0 1-20.155 48.273zm40.209-111.257L491.656 341.736c21.433-27.077 40.648-55.327 57.58-84.653l334.579 168.164c-1.548 43.065-8.064 86.3-19.351 129.397z"/></svg>