<svg class="icon" viewBox="0 0 1024 1024" xmlns="http://www.w3.org/2000/svg"><path fill="#8a8a8a" d="M512 192C288.686 192 95.11 322.048 0 512c95.11 189.952 288.686 320 512 320s416.87-130.048 512-320c-95.11-189.952-288.686-320-512-320zm252.457 169.697C824.627 400.077 875.602 451.461 913.9 512c-38.298 60.518-89.273 111.923-149.443 150.303C688.865 710.513 601.559 736.01 512 736.01s-176.865-25.477-252.457-73.707c-60.15-38.38-111.145-89.764-149.422-150.303 38.298-60.518 89.272-111.923 149.443-150.303 3.911-2.498 7.884-4.915 11.857-7.29-9.953 27.32-15.4 56.831-15.4 87.592 0 141.374 114.606 256 256 256s256-114.626 256-256c0-30.781-5.448-60.272-15.401-87.593 3.973 2.376 7.946 4.793 11.857 7.312zM512 416.01c0 53.023-42.988 96.01-96.01 96.01s-96.01-42.987-96.01-96.01S362.967 320 415.99 320 512 362.988 512 416.01z"/></svg>