<svg class="icon" viewBox="0 0 1024 1024" xmlns="http://www.w3.org/2000/svg"><path fill="#8a8a8a" d="M466.066 129.003c48.118 0 99.856 8.107 145.817 22.851 87.266 28.112 164.012 64.846 213.078 90.716 10.261 5.432 19.833 10.606 28.543 15.435-20.265 16.21-38.632 28.974-52.946 38.2-27.422 17.763-46.307 26.905-47.428 27.422l-65.45 30.267 50.014 52.342c41.133 43.03 72.176 85.886 92.095 116.24-24.834 2.328-54.584 4.139-86.92 4.139-28.198 0-55.62-1.38-81.575-4.053l-96.407-10.089 45.27 85.714c.087.172 9.572 18.97 15.867 48.634 3.88 18.282 5.69 36.735 5.433 54.756a291.353 291.353 0 0 1-.517 12.245c-60.103-23.024-159.873-66.484-246.536-128.57-60.965-43.72-111.497-104.253-138.745-166.254-14.056-31.99-21.558-63.38-22.334-93.215-.776-30.871 5.95-59.931 19.832-86.404 10.262-19.574 23.456-36.82 39.15-51.135 14.746-13.451 32.078-24.834 51.653-33.716 18.798-8.623 39.838-15.09 62.69-19.402 21.645-4.053 45.013-6.123 69.416-6.123zm0-51.739c-105.719 0-214.284 34.493-268.61 138.143-75.366 143.575 25.439 317.676 156.854 411.84C496.506 729.26 670.003 782.464 670.003 782.464c36.562-112.532-14.056-208.42-14.056-208.42 30.095 3.104 59.413 4.397 86.92 4.397 96.752 0 170.394-15.09 170.394-15.09s-45.616-95.975-138.143-192.813c0 0 82.351-38.545 165.477-120.723 0 0-135.9-90.284-312.847-147.111-46.821-15.09-103.82-25.439-161.682-25.439m202.644 833.08s59.758-90.284 200.315-76.142c0 0 25.265-1.379 25.61-24.144.345-26.472-22.16-27.594-22.16-27.594s-72.435-8.019-134.78 16.126c-62.345 24.144-98.217 59.413-113.566 86.231-14.918 26.127 22.679 56.049 44.58 25.524z"/><path fill="#8a8a8a" d="M518.322 948.89s18.109-20.437-6.035-38.545c-24.146-18.109-48.894-40.27-74.418-63.208S329.82 735.64 309.125 700.802c-20.695-34.751-37.942-54.929-61.827-113.825s-24.317-100.114-24.317-100.114-9.745-146.766-42.598-98.477c0 0-21.385 53.464-2.07 148.318S262.045 720.98 270.84 735.64c30.44 50.532 76.574 97.096 101.494 120.12 40.787 37.683 110.72 99.684 108.91 95.458 0 0 18.108 16.383 37.078-2.328zm-164.356-42.254s5.26-9.485-25.438-37.338c-30.612-27.853-96.751-75.625-202.212-79.333 0 0-37.683-5.863-42.598 14.832-4.916 20.696-.26 29.405 19.575 35.441 20.953 6.381 64.414-1.897 106.323 17.506 67.519 31.302 85.368 50.272 85.368 50.272l16.988 18.713s11.813 10.951 29.922 1.724c18.108-9.14 12.072-21.817 12.072-21.817z"/></svg>