<svg class="icon" viewBox="0 0 1024 1024" xmlns="http://www.w3.org/2000/svg"><path fill="#8a8a8a" d="M939.662 139.436a40.93 40.93 0 0 0-37.095-5.38l-186.594 64.245L535.417 72.347c-14.475-10.098-33.792-9.78-47.928.788L320.05 198.315l-199.348-64.5a40.933 40.933 0 0 0-53.533 38.944c0 55.048 1.018 114.491 8.405 176.164 8.99 75.047 25.573 137.844 50.697 191.98 31.749 68.408 77.392 121.899 135.659 158.984 57.266 36.45 127.479 57.438 209.133 62.62V916.45c0 22.607 18.326 40.933 40.932 40.933 22.607 0 40.932-18.326 40.932-40.933V762.507c124.462-7.99 221.548-53.225 288.978-134.778 14.405-17.422 11.96-43.224-5.463-57.629-17.421-14.404-43.222-11.96-57.628 5.463-27.365 33.096-61.59 58.732-101.726 76.193-46.024 20.023-101.567 30.176-165.088 30.176-154.783 0-256.667-57.404-311.472-175.492-40.775-87.855-49.263-196.991-51.03-277.264l165.498 53.548a40.937 40.937 0 0 0 37.11-6.161l160.719-120.157L686.2 277.351a40.928 40.928 0 0 0 36.744 5.132l151.34-52.106c-1.854 70.263-8.289 142.404-28.127 210.969-6.285 21.715 6.226 44.413 27.942 50.696 21.723 6.288 44.413-6.226 50.697-27.942 28.148-97.28 32.028-197.514 32.028-291.34a40.933 40.933 0 0 0-17.162-33.324zM854.677 755.5c-139.623 0-224.918 129.014-228.48 134.506-12.302 18.965-6.901 44.314 12.064 56.616a40.744 40.744 0 0 0 22.237 6.597c13.405 0 26.54-6.578 34.378-18.661.156-.24 16.39-24.722 44.806-49.174 37.033-31.865 75.723-48.02 114.995-48.02 22.606 0 40.932-18.326 40.932-40.933s-18.326-40.931-40.932-40.931zm-683.968-.819c-23.058 0-41.75 18.692-41.75 41.751s18.692 41.751 41.75 41.751c39.07 0 77.58 16.09 114.46 47.823 28.331 24.376 44.498 48.759 44.653 48.998 7.995 12.326 21.393 19.035 35.066 19.035a41.562 41.562 0 0 0 22.683-6.73c19.345-12.548 24.854-38.402 12.305-57.748-3.573-5.506-89.105-134.88-229.167-134.88zM281.336 440.7a57.827 57.827 0 1 0 118.349 0 57.827 57.827 0 1 0-118.35 0zm342.877 0a57.827 57.827 0 1 0 118.35 0 57.827 57.827 0 1 0-118.35 0z"/></svg>