<svg class="icon" viewBox="0 0 1024 1024" xmlns="http://www.w3.org/2000/svg"><path fill="#8a8a8a" d="M867.388 458.14c-16.592-5.013-33.968 4.32-38.96 20.82-9.688 31.975-22.997 62.15-39.538 89.703-57.707 96.117-158.45 151.241-276.415 151.241-117.997 0-218.76-55.145-276.457-151.282-16.52-27.553-29.808-57.708-39.488-89.62-5.012-16.491-22.438-25.825-38.96-20.822-16.5 5.012-25.823 22.449-20.82 38.96 11.173 36.814 26.545 71.676 45.71 103.62 63.055 105.076 173.214 170.898 298.781 180.312v147.536c0 17.253 13.98 31.233 31.233 31.233s31.232-13.98 31.232-31.233V781.072c125.524-9.415 235.67-75.217 298.742-180.262 19.175-31.935 34.578-66.837 45.761-103.712 5.002-16.51-4.32-33.947-20.82-38.959zm14.237-236.735c-9.445-22.174-31.242-36.805-55.836-37.283l-9.588-.09c-55.643 0-106.487 16.714-151.333 35.329-39.183-67.254-75.712-112.12-113.787-139.957a61.58 61.58 0 0 0-6.944-5.164c-17.304-11.042-38.929-12.83-57.768-4.819a61.856 61.856 0 0 0-15.077 9.038c-37.892 27.37-75.661 73.19-115.028 139.631C311.916 200.135 261.906 184 208.296 184l-9.445.102c-24.288.488-46.077 15.108-55.522 37.262-21.604 50.701-30.45 111.133-25.6 174.757 1.25 16.39 14.935 28.853 31.11 28.853.794 0 1.597-.03 2.41-.091 17.193-1.312 30.075-16.318 28.763-33.52-4.067-53.376 3.01-103.428 20.486-144.817l8.113-.08c52.034 0 101.953 19.652 148.62 39.782 14.7 6.324 31.841.54 39.65-13.47 40.169-72.042 76.689-119.196 111.662-144.166.732-.519 1.027-1.341 1.708-1.932a31.59 31.59 0 0 0 3 2.45c34.74 25.02 71.005 72.47 110.848 145.04 7.808 14.214 25.194 20.08 40.027 13.533 44.999-19.938 97.56-41.207 151.77-41.207l8.56.08c16.49 39.062 23.77 86.205 21.056 136.42-.935 17.222 12.271 31.944 29.494 32.87 17.09 1.209 31.944-12.262 32.87-29.494 3.253-59.984-5.825-117.04-26.25-164.967zM390.594 332.03c-17.253 0-31.232 13.98-31.232 31.232v30.47c0 17.253 13.979 31.233 31.232 31.233s31.232-13.98 31.232-31.233v-30.47c.001-17.252-13.98-31.232-31.232-31.232zm243.77 0c-17.253 0-31.232 13.98-31.232 31.232v30.47c0 17.253 13.979 31.233 31.232 31.233s31.232-13.98 31.232-31.233v-30.47c.001-17.252-13.978-31.232-31.232-31.232zM589.5 473.47c-14.305-9.404-33.591-5.388-43.158 8.764-.132.193-13.613 19.754-34.17 19.754-19.988 0-32.433-18.118-33.266-19.378-9.18-14.417-28.284-18.809-42.832-9.75-14.65 9.099-19.154 28.354-10.045 43.005 11.214 18.046 41.969 48.588 86.144 48.588 43.961 0 75.102-30.318 86.57-48.222 9.22-14.394 5.031-33.356-9.243-42.76zM855.132 756.2c-10.28-13.878-29.82-16.806-43.687-6.558L603.229 903.486c-13.868 10.249-16.806 29.81-6.558 43.687 6.131 8.286 15.576 12.668 25.143 12.668a31.096 31.096 0 0 0 18.544-6.11l208.217-153.845c13.866-10.248 16.805-29.808 6.557-43.686zM421.73 903.486L213.514 749.642c-13.888-10.248-33.428-7.32-43.687 6.558-10.249 13.878-7.31 33.438 6.557 43.687L384.6 953.732a31.096 31.096 0 0 0 18.545 6.11c9.567 0 19.012-4.382 25.142-12.668 10.249-13.878 7.31-33.44-6.557-43.688z"/></svg>