<svg class="icon" viewBox="0 0 1024 1024" xmlns="http://www.w3.org/2000/svg"><path fill="#8a8a8a" d="M304.64 363.968c-35.52-.384-65.472 27.264-66.048 61.312-.64 33.792 28.864 62.016 64.704 61.952 36.736-.128 65.6-26.624 65.984-60.736.384-33.984-28.736-62.08-64.64-62.528zm-.704 93.248c-17.984 0-32.704-14.144-32.384-31.04.32-17.024 15.296-30.912 33.088-30.656 17.984.192 32.576 14.272 32.32 31.296-.192 17.024-14.656 30.272-33.024 30.4zm212.672-93.504c-34.816.448-63.808 29.44-63.232 63.36.576 34.24 29.312 60.608 65.728 60.288 36.736-.384 64.576-26.752 64.576-61.248.064-34.688-30.208-62.848-67.072-62.4zm3.712 93.376c-18.24.192-32.64-12.992-32.96-30.016-.256-16.832 14.272-31.232 31.744-31.424 18.496-.192 33.664 13.76 33.6 31.04 0 17.152-14.016 30.208-32.384 30.4zm212.16-93.376c-35.136-.192-64.448 27.84-64.64 61.888-.192 34.88 27.328 61.248 64.192 61.632 36.864.448 65.664-25.344 66.432-59.648.768-34.048-29.824-63.616-65.984-63.872zm.704 94.336c-18.688-.192-32.576-13.504-32.448-31.168.128-17.152 14.912-31.36 32.64-31.232 18.24.128 33.728 15.04 33.344 32.256-.32 17.408-14.976 30.336-33.536 30.144zm216.704-16.512h.448c-2.88-53.44-2.432-107.328-9.792-160.064-3.904-27.904-15.872-58.304-33.6-79.872-46.016-55.808-110.912-69.696-180.736-64.64-73.344 5.312-146.752 11.264-220.032 17.472-93.824 8.128-187.712 14.912-281.088 25.6-78.848 9.024-141.056 80.64-142.72 150.464-1.728 71.232-9.344 142.336-15.552 213.376-7.872 89.408 43.392 156.864 133.44 171.648 25.28 4.032 51.008 4.672 76.48 7.808 26.88 3.264 32.32 15.552 16.768 37.504-22.08 31.168-45.568 61.568-66.88 93.312-8.704 12.992-13.504 28.48-20.096 42.816 16.768-3.136 35.52-2.496 50.048-9.984 78.08-40.32 155.648-81.856 232.448-124.608 28.032-15.488 55.552-23.872 88-19.264 28.608 4.16 57.856 5.312 86.976 6.208 44.288 1.152 89.344 6.144 132.864.384 107.2-14.208 163.776-84.928 158.912-190.976-1.728-39.104-3.904-78.08-5.888-117.184zM776.32 717.952c-40.384 5.184-81.984.704-123.264-.192-27.072-.768-54.208-1.792-80.768-5.632l-25.536-.96c-22.08-3.392-40.832 2.688-59.904 14.016-52.288 31.04-105.152 61.312-158.336 90.56-9.856 5.44-22.656 4.992-34.048 7.232 4.48-10.432 7.744-21.632 13.696-31.04 14.464-23.104 25.792-39.232 40.832-61.952 10.368-15.552-7.872-30.72-25.792-33.6l-29.44-1.856c-23.616-2.752-47.552-3.392-70.976-6.976C139.2 674.304 91.648 614.08 98.88 534.208c5.76-63.616 12.864-127.168 14.464-190.912 1.472-62.4 59.264-126.4 132.416-134.464 86.656-9.536 173.696-15.68 260.8-22.848 67.904-5.568 136.064-10.816 204.16-15.616 64.64-4.608 124.864 7.872 167.616 57.728 16.512 19.264 27.648 46.464 31.296 71.424 6.72 47.168 6.4 95.296 9.088 143.104h-.448c1.792 34.944 3.968 69.76 5.568 104.64 4.48 94.72-47.936 158.08-147.52 170.688z"/></svg>