<svg class="icon" viewBox="0 0 1024 1024" xmlns="http://www.w3.org/2000/svg"><path fill="#8a8a8a" d="M510.79 968.443c-124.188 0-229.493-31.108-304.78-89.812-37.764-29.534-67.056-65.362-87.027-106.637-20.335-41.88-30.624-88.601-30.624-138.833 0-54.71 23.482-125.64 64.515-194.511 39.459-66.21 91.385-124.55 148.032-166.43-14.888-25.056-22.635-51.08-22.635-76.135 0-38.733 15.615-91.143 90.175-120.677C415.168 57.01 471.694 53.137 510.79 53.137c85.333 0 148.395 16.219 187.37 48.295 37.16 30.623 45.027 68.387 45.027 94.774 0 25.055-7.747 50.958-22.635 76.134 56.647 41.88 108.694 100.222 148.032 166.43 41.033 68.873 64.515 139.802 64.515 194.512 0 50.232-10.289 96.953-30.623 138.833-19.972 41.154-49.264 77.103-87.028 106.637-75.166 58.704-180.471 89.69-304.658 89.69zm0-866.89c-68.751 0-183.981 12.346-183.981 94.653 0 21.061 9.562 45.027 26.75 67.54l15.856 20.698-21.788 14.283c-58.34 38.37-112.809 96.953-153.236 164.736-36.07 60.641-57.616 124.187-57.616 169.698 0 174.298 146.822 286.865 374.015 286.865 227.192 0 374.014-112.567 374.014-286.865 0-45.632-21.545-109.057-57.736-169.82-40.428-67.782-94.775-126.365-153.237-164.735l-21.788-14.283 15.857-20.697c17.309-22.514 26.75-46.48 26.75-67.54 0-23.12-9.2-42.486-27.355-57.374-29.534-24.329-83.64-37.16-156.505-37.16zm95.38 458.5c16.34 0 29.654-13.314 29.654-29.655 0-16.34-13.314-29.655-29.655-29.655h-40.911l45.51-45.51c11.62-11.62 11.62-30.382 0-42.002-11.62-11.62-30.38-11.62-42 0l-56.163 56.163-56.283-56.163c-11.62-11.62-30.382-11.62-42.001 0-11.62 11.62-11.62 30.381 0 42.001l45.51 45.511h-41.637c-16.34 0-29.655 13.315-29.655 29.655 0 16.34 13.314 29.655 29.655 29.655h64.272v32.318h-66.935c-16.34 0-29.655 13.314-29.655 29.655 0 16.34 13.315 29.654 29.655 29.654h66.935v56.647c0 16.34 13.315 29.655 29.655 29.655 16.34 0 29.655-13.314 29.655-29.655V651.68h61.61c16.34 0 29.654-13.314 29.654-29.654s-13.314-29.655-29.655-29.655h-61.61v-32.318h64.394z"/></svg>