<svg class="icon" viewBox="0 0 1024 1024" xmlns="http://www.w3.org/2000/svg"><path fill="#8a8a8a" d="M526.042 323.31c-7.525-1.937-15.181 2.463-17.124 9.837l-46.595 177.026-97.435-42.105c-3.878-1.676-6.493 2.564-5.843 9.483.65 6.919 4.32 13.882 8.198 15.558l98.276 42.467c.721.312 1.399.417 2.02.34.739.333 1.508.62 2.32.83 7.52 1.937 15.183-2.469 17.12-9.835l49.162-186.759c1.934-7.374-2.58-14.906-10.099-16.842zM809.37 790.196L658.974 610.672c42.755-47.94 66.12-108.798 66.12-173.175 0-70.13-27.705-136.035-77.981-185.602-50.268-49.633-117.113-76.978-188.21-76.978-71.077 0-137.906 27.345-188.175 76.977-50.268 49.568-77.973 115.473-77.973 185.602 0 70.109 27.683 136.057 77.973 185.675 50.27 49.554 117.098 76.854 188.174 76.854 49.856 0 97.61-13.44 139.034-38.549l150.15 179.355c6.577 7.867 15.854 12.716 26.11 13.651 10.243.933 20.265-2.156 28.148-8.675l2.078-1.712c16.307-13.481 18.532-37.661 4.948-53.899zm-350.468-121.06c-62.712 0-121.683-24.08-166.036-67.805-44.368-43.775-68.801-101.974-68.801-163.835s24.433-120.03 68.8-163.77c44.368-43.79 103.325-67.92 166.037-67.92 62.736 0 121.706 24.13 166.074 67.92 44.367 43.74 68.8 101.91 68.8 163.77s-24.433 120.059-68.8 163.835c-44.368 43.724-103.325 67.805-166.074 67.805zm331.455 155.378l-2.054 1.732c-5.88 4.972-15.36 4.199-20.337-1.633L630.823 664.11l27.083-20.31 134.096 160.406c5.168 6.07 4.43 15.184-1.645 20.308zM526.042 323.31c-7.525-1.937-15.181 2.463-17.124 9.837l-46.595 177.026-97.435-42.105c-3.878-1.676-6.493 2.564-5.843 9.483.65 6.919 4.32 13.882 8.198 15.558l98.276 42.467c.721.312 1.399.417 2.02.34.739.333 1.508.62 2.32.83 7.52 1.937 15.183-2.469 17.12-9.835l49.162-186.759c1.934-7.374-2.58-14.906-10.099-16.842zM809.37 790.196L658.974 610.672c42.755-47.94 66.12-108.798 66.12-173.175 0-70.13-27.705-136.035-77.981-185.602-50.268-49.633-117.113-76.978-188.21-76.978-71.077 0-137.906 27.345-188.175 76.977-50.268 49.568-77.973 115.473-77.973 185.602 0 70.109 27.683 136.057 77.973 185.675 50.27 49.554 117.098 76.854 188.174 76.854 49.856 0 97.61-13.44 139.034-38.549l150.15 179.355c6.577 7.867 15.854 12.716 26.11 13.651 10.243.933 20.265-2.156 28.148-8.675l2.078-1.712c16.307-13.481 18.532-37.661 4.948-53.899zm-350.468-121.06c-62.712 0-121.683-24.08-166.036-67.805-44.368-43.775-68.801-101.974-68.801-163.835s24.433-120.03 68.8-163.77c44.368-43.79 103.325-67.92 166.037-67.92 62.736 0 121.706 24.13 166.074 67.92 44.367 43.74 68.8 101.91 68.8 163.77s-24.433 120.059-68.8 163.835c-44.368 43.724-103.325 67.805-166.074 67.805zm331.455 155.378l-2.054 1.732c-5.88 4.972-15.36 4.199-20.337-1.633L630.823 664.11l27.083-20.31 134.096 160.406c5.168 6.07 4.43 15.184-1.645 20.308z"/></svg>