<svg class="icon" viewBox="0 0 1024 1024" xmlns="http://www.w3.org/2000/svg"><path fill="#8a8a8a" d="M513.177 0C230.694 0 0 228.34 0 510.823s228.34 510.823 510.823 510.823c282.483 0 510.823-228.34 510.823-510.823S795.66 0 513.177 0zm0 1016.938c-280.129 0-506.115-225.986-506.115-506.115S233.048 4.708 513.177 4.708s506.115 225.986 506.115 506.115-228.34 506.115-506.115 506.115z"/><path fill="#8a8a8a" d="M772.12 579.09V298.96s-58.851 0-141.242-32.955c-72.975-30.603-110.639-63.559-115.347-68.267-4.708 4.708-42.372 37.664-115.347 68.267-82.39 32.956-141.241 32.956-141.241 32.956V579.09s-4.709 63.558 89.452 138.887c94.161 77.683 157.72 103.577 167.136 105.931 11.77-4.708 72.975-30.602 167.136-105.931 91.807-75.329 89.453-138.887 89.453-138.887zm-96.515 129.47c-89.453 72.976-150.658 98.87-160.074 101.224-11.77-4.708-70.62-28.248-160.074-101.223-89.452-70.62-84.744-131.825-84.744-131.825V308.377s56.496 0 134.179-30.602c70.62-28.249 105.931-61.205 110.639-65.913 4.708 4.708 42.372 37.664 110.64 65.913 77.682 30.602 134.178 30.602 134.178 30.602v268.359s2.354 61.204-84.744 131.825z"/><path fill="#8a8a8a" d="M494.345 590.86l-87.099-87.1-9.416 9.417 96.515 94.16 188.322-188.32-9.416-9.417z"/></svg>