<svg class="icon" viewBox="0 0 1024 1024" xmlns="http://www.w3.org/2000/svg"><path fill="#8a8a8a" d="M924.15 131.718L490.754 0h-25.494L31.867 127.469c-16.996 8.498-29.743 25.494-29.743 42.49v344.165c0 131.718 89.229 293.179 208.2 361.162l225.195 135.967c12.747 8.498 29.742 12.747 42.49 12.747 16.995 0 29.742-4.249 42.489-12.747l225.195-135.967c114.722-67.983 208.2-225.195 208.2-361.162V169.96c0-16.996-12.748-33.992-29.744-38.241zm-50.988 382.406c0 101.976-76.482 237.942-165.71 288.93L478.008 934.772 252.813 798.805c-93.477-50.988-165.71-182.705-165.71-284.68V199.7L478.009 84.98l390.905 114.722v314.423zm-573.61-72.232c-12.747-16.996-42.49-21.245-59.486-4.249-16.995 12.747-21.244 42.49-4.249 59.486l140.216 174.207c8.498 8.498 16.996 12.747 29.743 16.996h4.249c8.498 0 21.245-4.249 25.494-8.498L749.942 407.9c16.996-16.995 21.245-42.49 4.249-59.485-16.996-16.996-42.49-21.245-59.486-4.249l-280.431 242.19-114.722-144.464z"/></svg>