<svg class="icon" viewBox="0 0 1024 1024" xmlns="http://www.w3.org/2000/svg"><path fill="#333" d="M643.8 530.4c72.2-44.3 120.3-124 120.3-214.9 0-139.2-112.9-252.1-252.1-252.1S259.9 176.3 259.9 315.5c0 88.5 45.6 166.3 114.6 211.3l79 45.1c19.1-2.9 38.6-4.3 58.5-4.3 216.6 0 392.1 175.5 392.1 392.1v.9h56c0-.4.1-.9.1-1.3-.1-201.9-133.2-372.6-316.4-428.9zM512 510.7c-5.2 0-10.3.1-15.5.3-101-7.9-180.6-92.4-180.6-195.4 0-108.3 87.8-196 196.1-196s196.1 87.8 196.1 196c0 103.1-79.5 187.6-180.6 195.4-5.2-.2-10.3-.3-15.5-.3zM63.9 959.2c0 .4.1.9.1 1.3h56v-.9c0-130.7 64-246.5 162.3-317.8L229 611.5C128.2 693.7 63.9 819 63.9 959.2z"/></svg>