<svg class="icon" viewBox="0 0 1024 1024" xmlns="http://www.w3.org/2000/svg"><path fill="#8a8a8a" d="M866.392 874.5c0-166.727-110.549-307.46-260.584-349.77 75.311-35.468 127.583-112.067 127.583-200.683 0-122.26-99.463-221.716-221.717-221.716s-221.717 99.457-221.717 221.716c0 88.607 49.966 165.2 125.265 200.673C265.17 567.018 152.307 707.76 152.307 874.5v29.421c0 9.419 7.466 17.056 16.885 17.056s16.884-7.637 16.884-17.056V874.5c0-181.268 146.302-328.735 323.103-328.735s321.87 147.467 321.87 328.735l.674 28.57c.025 9.41 8.27 16.719 17.672 16.719h.046c9.418 0 17.034-7.385 17.01-16.803l-.06-28.486zM324.068 324.046c0-103.446 84.16-187.605 187.606-187.605s187.606 84.16 187.606 187.605-84.16 187.606-187.606 187.606-187.606-84.16-187.606-187.606z"/></svg>