<svg class="icon" viewBox="0 0 1024 1024" xmlns="http://www.w3.org/2000/svg"><path fill="#8a8a8a" d="M628.775 471.457l-74.224 95.52h31.746c16.563 0 29.912 10.287 29.912 23.018 0 6.45-3.28 12.176-8.728 16.404-5.394 4.113-12.843 6.725-21.184 6.725h-51.819v19.183h51.819c16.563 0 29.912 10.453 29.912 23.183 0 6.34-3.28 12.124-8.728 16.398-5.394 4.065-12.843 6.733-21.184 6.733h-51.819v43.812c0 16.513-11.4 29.857-25.577 29.857-7.006 0-13.343-3.286-17.958-8.73-4.615-5.393-7.562-12.953-7.562-21.127V678.62h-47.76c-16.513 0-29.912-10.46-29.912-23.13 0-6.396 3.336-12.177 8.728-16.403 5.449-4.113 13.01-6.782 21.184-6.782h47.76v-19.183h-47.76c-16.513 0-29.912-10.291-29.912-23.13 0-6.393 3.336-12.064 8.728-16.29 5.449-4.226 13.01-6.728 21.184-6.728h33.861l-74.225-95.52c-9.397-12.066-7.785-27.69 3.613-34.973 3.836-2.5 8.451-3.669 13.065-3.669 8.73 0 18.015 4.225 24.076 12.177l76.06 97.632 75.95-97.632c6.116-7.952 15.345-12.177 24.074-12.177 4.67 0 9.286 1.17 13.121 3.67 11.232 7.284 12.956 22.908 3.56 34.974zM878.585 65.78H145.413c-43.832 0-79.493 37.58-79.493 83.771v174.36c0 46.19 35.661 83.77 79.493 83.77h32.113V874.01c0 49.574 40.331 89.906 89.905 89.906h489.138c49.574 0 89.905-40.332 89.905-89.906V407.68h32.113c43.833 0 79.494-37.58 79.494-83.77V149.55c0-46.19-35.661-83.77-79.494-83.77zm-83.276 808.23c0 21.361-17.379 38.74-38.74 38.74H267.43c-21.361 0-38.74-17.379-38.74-38.74V256.46h566.619v617.55z"/></svg>