<svg class="icon" viewBox="0 0 1024 1024" xmlns="http://www.w3.org/2000/svg"><path fill="#333" d="M424.624 290.934c-157.889 3.059-285.767 132.773-285.591 289.145.109 156.683 129.004 282.56 287.9 279.945 159.771-2.49 289.174-133.241 288.136-291.228-1.415-157.443-131.797-281.781-290.445-277.862zm37.07 512.616c-6.511-.541-7.56-5.073-7.914-8.246l-.517-101.35c-.07-8.472 6.711-14.227 6.711-14.227 13.764-10.332 22.795-26.437 22.536-44.446.074-31.075-25.603-55.658-56.778-54.859-30.897.486-56.03 25.96-55.895 56.631.032 18.44 8.954 34.313 22.646 44.06l-.041.268s6.8 4.987 7.066 13.383l.02 1.028.413 97.902s1.522 10.072-7.555 10.898C278.99 789.868 192.179 695.037 192.132 578.85c-.217-127.57 104.072-232.871 232.85-235.787 129.178-2.965 235.18 98.423 236.126 226.646.62 116.943-86.05 215.114-199.415 233.84zm384.03-494.328c-8.677-61.844-50.434-114.132-108.98-136.445-7.856-3.015-16.619.918-19.615 8.747-2.997 7.83.938 16.596 8.77 19.58 48.213 18.385 82.59 61.42 89.749 112.368l.25 1.86c1.002 7.627 7.527 13.179 15.038 13.179l2.01-.136c8.318-1.09 14.162-8.7 13.067-17.01l-.29-2.143zm81.835-4.24c-8.497-98.38-74.82-181.736-168.95-212.358-7.998-2.574-16.548 1.76-19.155 9.716-2.605 7.966 1.761 16.525 9.734 19.115 82.511 26.846 140.651 99.913 148.108 186.13.68 7.904 7.308 13.863 15.117 13.863l1.323-.06c8.354-.717 14.543-8.067 13.823-16.407zm-206.385-53.82c-7.448-3.816-16.602-.887-20.459 6.532-3.833 7.454-.908 16.596 6.556 20.434 18.278 9.388 31.43 26.206 36.069 46.115 1.635 6.997 7.871 11.722 14.78 11.722 1.141 0 2.3-.13 3.449-.39 8.184-1.907 13.262-10.051 11.36-18.21-6.665-28.591-25.529-52.72-51.755-66.204z"/></svg>