<svg class="icon" viewBox="0 0 1024 1024" xmlns="http://www.w3.org/2000/svg"><path fill="#333" d="M289.92 402.56h450.56-450.56zm508.161-162.031c-16.257-33.792-39.256-64.395-68.357-90.956-28.93-26.405-62.153-47.23-98.747-61.896C592.838 72.39 553.03 64.64 512.654 64.64c-40.36 0-80.157 7.7-118.283 22.888-36.592 14.576-69.815 35.275-98.747 61.522-29.115 26.412-52.127 56.847-68.395 90.457-17.145 35.423-25.839 72.471-25.839 110.116 0 43.359 5.24 106.168 30.207 159.17 26.338 55.921 71.357 106.951 122.35 139.35v167.95c0 2.851.23 5.723.685 8.561 3.554 37.097 21.452 71.388 50.494 96.684 29.097 25.344 66.827 39.3 106.235 39.3 37.696 0 74.19-12.916 102.754-36.368 27.95-22.95 46.531-54.399 52.528-88.799a53.822 53.822 0 0 0 2.544-16.399V649.659c45.134-28.913 87.846-75.898 116.417-128.66 31.643-58.29 38.285-124.524 38.285-169.823 0-37.823-8.683-75.05-25.808-110.647zM511.361 904.32c-40.99 0-77.025-23.15-92.714-56.32h185.45c-15.732 33.324-51.906 56.32-92.736 56.32zm101.507-112.64H410.267v-56.32h202.6v56.32zm123.225-297.523c-26.702 49.31-67.29 92.22-108.57 114.781l-14.655 8.01v62.092H410.267v-63.506l-14.526-8.037c-46.22-25.576-89.592-72.591-113.193-122.7-20.528-43.582-24.837-97.562-24.837-135.173 0-57.282 27.611-115.186 75.755-158.86 48.897-44.363 114.21-69.804 179.188-69.804 64.936 0 130.216 25.591 179.103 70.212 48.18 43.976 75.813 102.295 75.813 160.005 0 38.775-5.46 95.051-31.477 142.98zM604.774 199.94c-17.708-18.337-41.397-29.23-70.409-32.376-41.922-4.54-83.462 14.775-106.027 35.937-15.81 14.828-35.684 43.466-40.581 95.693l56.074 5.257c2.5-26.664 10.897-48.485 23.035-59.87 12.828-12.029 38.717-23.481 61.43-21.025 29.284 3.176 44.769 17.502 51.777 47.904 5.071 21.997-7.894 46.024-19.204 54.91-34.253 26.922-53.5 47.875-64.358 70.065-11.145 22.774-12.03 43.661-12.03 68.6v39.78h56.32v-39.78c0-21.842.876-32.763 6.298-43.844 6.8-13.893 21.78-29.481 48.572-50.539 27.375-21.514 49.659-66.84 39.282-111.845-5.549-24.071-15.703-43.877-30.179-58.867zM484.493 561.137h56.32v56.32h-56.32v-56.32z"/></svg>