<svg class="icon" viewBox="0 0 1153 1024" xmlns="http://www.w3.org/2000/svg"><path d="M844.293 321.45c-47.712-51.801-218.355-79.776-218.355-79.776L495.593 93.841V.71h-331.03v326.013h.885L35.36 442.14c-20.693 18.306-24.498 47.488-8.501 64.983l254.502 278.36c16.004 17.554 45.85 16.903 66.488-1.409l326.059-289.123v188.817S985.56 474.845 844.293 321.45zm-624.555-49.057V55.05H440.42v31.13c-4.304 2.181-8.717 4.346-12.522 7.721l-208.16 184.686v-6.193zm454.17 159.422L333.883 733.323c-6.287 5.54-15.22 5.76-20.131.433L82.47 480.77c-4.905-5.329-3.752-14.126 2.483-19.673L440.42 145.842v180.882h55.173V180.838l178.315 195.01v55.967zm89.702 366.784L957.623 1024l194.816-225.4H763.61zM0 981.244h782.562V878.898H0v102.346z" fill="#8a8a8a"/></svg>