<svg class="icon" viewBox="0 0 1024 1024" xmlns="http://www.w3.org/2000/svg"><path fill="#8a8a8a" d="M991.2 358.4L798.4 551.2c-32.8 32.8-86.4 32.8-119.2 0L486.4 358.4c-32.8-32.8-32.8-86.4 0-119.2L679.2 46.4c32.8-32.8 86.4-32.8 119.2 0L991.2 240c32.8 32 32.8 85.6 0 118.4zM937.6 272l-172-172c-14.4-14.4-38.4-14.4-52.8 0l-172 172c-14.4 14.4-14.4 38.4 0 52.8l172 172c14.4 14.4 38.4 14.4 52.8 0l172-172c15.2-14.4 15.2-37.6 0-52.8zm-566.4 752H98.4c-46.4 0-84-37.6-84-84V666.4c0-46.4 37.6-84 84-84h272.8c46.4 0 84 37.6 84 84V940c0 46.4-37.6 84-84 84zm0-504.8H98.4c-46.4 0-84-37.6-84-84V162.4c0-46.4 37.6-84 84-84h272.8c46.4 0 84 37.6 84 84V436c0 45.6-37.6 83.2-84 83.2zm231.2 63.2h272.8c46.4 0 84 37.6 84 84V940c0 46.4-37.6 84-84 84H602.4c-46.4 0-84-37.6-84-84V666.4c0-46.4 37.6-84 84-84z"/></svg>