<svg class="icon" viewBox="0 0 1024 1024" xmlns="http://www.w3.org/2000/svg"><path fill="#8a8a8a" d="M277.478 190.31c-27.842 0-50.278 22.513-50.278 50.468 0 27.945 22.436 50.458 50.278 50.458h440.72c27.648 0 50.283-22.513 50.283-50.458 0-27.95-22.436-50.468-50.283-50.468h-86.14V80.727c0-44.436-35.86-80.425-80.132-80.425H443.75c-44.272 0-80.128 35.989-80.128 80.425V190.31h-86.144zM497.833 45.537c29.25 0 53.094 23.926 53.094 53.29 0 29.352-23.849 53.278-53.094 53.278s-53.08-23.926-53.08-53.279c0-29.358 23.835-53.289 53.08-53.289zm-238.556 329.14h477.127v78.433H259.277z"/><path fill="#8a8a8a" d="M833.147 192.164v393.968h78.141V192.164c0-53.909-43.699-97.767-97.408-97.767H687.555v78.434h126.33c10.62-.005 19.262 8.673 19.262 19.333zm-670.618 704.04v-704.04a19.323 19.323 0 0 1 19.267-19.338H310.63V94.397H181.796c-53.709 0-97.408 43.858-97.408 97.767v704.04c0 53.91 43.699 97.762 97.408 97.762h316.047v-78.433H181.796a19.318 19.318 0 0 1-19.267-19.328z"/><path fill="#8a8a8a" d="M259.277 574.597h281.19v78.433h-281.19zm497.203 38.948c-113.341 0-205.225 91.883-205.225 205.225 0 113.341 91.884 205.225 205.225 205.225S961.705 932.11 961.705 818.77c0-113.342-91.884-205.225-205.225-205.225zm124.518 260.27H734.275a14.08 14.08 0 0 1-14.08-14.08c0-.077.02-.143.02-.22 0-.077-.02-.143-.02-.22V727.05a14.52 14.52 0 0 1 29.04 0v118.6h131.769a14.08 14.08 0 1 1-.006 28.165z"/></svg>