<svg class="icon" viewBox="0 0 1024 1024" xmlns="http://www.w3.org/2000/svg"><path d="M778.24 143.36H245.76c-34.816 0-61.44 26.624-61.44 61.44v614.4c0 34.816 26.624 61.44 61.44 61.44h532.48c34.816 0 61.44-26.624 61.44-61.44V204.8c0-34.816-26.624-61.44-61.44-61.44zm20.48 696.32H225.28V184.32h573.44v655.36z" fill="#646464"/><path d="M225.28 778.24h573.44v61.44H225.28zm0-593.92h573.44v61.44H225.28z" fill="#E7E7E7"/><path d="M286.72 307.2h450.56v40.96H286.72zm0 122.88h368.64v40.96H286.72zm0 122.88H512v40.96H286.72zm0 122.88H512v40.96H286.72zm471.04-184.32c-106.496 0-194.56 88.064-194.56 194.56s88.064 194.56 194.56 194.56 194.56-88.064 194.56-194.56-88.064-194.56-194.56-194.56zm0 337.92c-79.872 0-143.36-63.488-143.36-143.36s63.488-143.36 143.36-143.36 143.36 63.488 143.36 143.36-63.488 143.36-143.36 143.36z" fill="#646464"/><path d="M614.4 686.08a143.36 143.36 0 1 0 286.72 0 143.36 143.36 0 1 0-286.72 0z" fill="#FFF"/><path d="M735.232 583.68h40.96v81.92h81.92v40.96h-122.88z" fill="#F0C34C"/></svg>