<svg viewBox="0 0 24 24" xmlns="http://www.w3.org/2000/svg"><title>ic_help</title><path d="M18.057 15.498a6.962 6.962 0 0 0 0-6.995l2.596-1.5a9.945 9.945 0 0 1 0 9.993l-2.596-1.498zM12 22a9.945 9.945 0 0 1-4.996-1.346l1.5-2.596a6.968 6.968 0 0 0 6.994 0l1.5 2.596a9.946 9.946 0 0 1-5 1.346zM2 12c0-1.822.495-3.524 1.347-4.996l2.596 1.499a6.959 6.959 0 0 0 0 6.995l-2.596 1.498A9.933 9.933 0 0 1 2 12zm15 0c0 .91-.26 1.754-.687 2.49a4.993 4.993 0 0 1-1.823 1.822A4.947 4.947 0 0 1 12 17a4.943 4.943 0 0 1-2.489-.688 4.993 4.993 0 0 1-1.823-1.822A4.96 4.96 0 0 1 7 12c0-.911.263-1.754.688-2.49A4.988 4.988 0 0 1 9.51 7.689 4.953 4.953 0 0 1 12 7c.911 0 1.753.263 2.49.688a4.996 4.996 0 0 1 1.822 1.823c.426.735.687 1.578.687 2.489zM12 2c1.823 0 3.525.495 4.997 1.347l-1.499 2.595a6.969 6.969 0 0 0-6.995 0l-1.5-2.595A9.936 9.936 0 0 1 12 2zm10.385 4.005a12.05 12.05 0 0 0-4.389-4.39 11.937 11.937 0 0 0-11.99 0 12.043 12.043 0 0 0-4.39 4.39 11.93 11.93 0 0 0 0 11.99 12.05 12.05 0 0 0 4.39 4.39 11.933 11.933 0 0 0 11.99 0 12.058 12.058 0 0 0 4.39-4.39 11.93 11.93 0 0 0 0-11.99z" fill="#414852" fill-rule="evenodd"/></svg>