<svg viewBox="0 0 24 24" xmlns="http://www.w3.org/2000/svg"><title>ic_track</title><path d="M12.528 0H11.47c-.045.011-.09.026-.137.031C9.519.189 7.93.849 6.594 2.038 4.92 3.528 4.047 5.383 4.002 7.569c-.043 2.045.523 3.959 1.502 5.766.967 1.784 2.26 3.334 3.789 4.698.712.636 1.491 1.204 2.253 1.787.16.122.299.18.44.18.146 0 .295-.061.47-.176a8.16 8.16 0 0 0 .216-.146c1.806-1.282 3.39-2.779 4.679-4.548 1.553-2.13 2.54-4.457 2.642-7.093.065-1.695-.378-3.254-1.368-4.645-1.302-1.83-3.12-2.921-5.395-3.301-.233-.039-.468-.061-.702-.091m-.12 2l.11.014c.128.014.256.028.383.049 1.774.296 3.114 1.11 4.094 2.488.72 1.013 1.049 2.13.999 3.41-.078 2.053-.817 4.013-2.26 5.991-1.002 1.377-2.22 2.599-3.708 3.721a23.007 23.007 0 0 1-1.402-1.133c-1.443-1.286-2.542-2.646-3.362-4.158-.88-1.627-1.294-3.188-1.26-4.771.033-1.623.662-2.957 1.922-4.079 1.002-.891 2.174-1.386 3.584-1.509.065-.005.126-.014.18-.023h.72zM9.9 24H1.1C.493 24 0 23.553 0 23c0-.552.493-1 1.1-1h8.8c.607 0 1.1.448 1.1 1 0 .553-.493 1-1.1 1zM23 22h-8a1 1 0 1 1 0-2h8a1 1 0 0 1 0 2zM12 9a1 1 0 1 0 0-2 1 1 0 0 0 0 2zm0 2a3 3 0 1 1 0-6 3 3 0 0 1 0 6z" fill="#414852" fill-rule="evenodd"/></svg>