<svg viewBox="0 0 24 24" xmlns="http://www.w3.org/2000/svg"><title>ic_newsfeed</title><path d="M0 2.005C0 .898.897 0 2.005 0h19.99C23.102 0 24 .897 24 2.005v19.99A2.005 2.005 0 0 1 21.995 24H2.005A2.005 2.005 0 0 1 0 21.995V2.005zm2 .987v18.016a1 1 0 0 0 .992.992h18.016a1 1 0 0 0 .992-.992V2.992A1 1 0 0 0 21.008 2H2.992A1 1 0 0 0 2 2.992zm2 2.017C4 4.452 4.443 4 5.01 4h1.98C7.549 4 8 4.443 8 5.01v1.98C8 7.549 7.557 8 6.99 8H5.01C4.451 8 4 7.557 4 6.99V5.01zm0 5.986c0-.55.445-.995 1-.995h14c.552 0 1 .456 1 .995v8.01c0 .55-.445.995-1 .995H5c-.552 0-1-.456-1-.995v-8.01zm2 1.996v4.018c0 .54.449.991 1.002.991h9.996c.546 0 1.002-.444 1.002-.99v-4.02c0-.539-.449-.99-1.002-.99H7.002C6.456 12 6 12.444 6 12.99zM10 5c0-.552.456-1 .995-1h8.01c.55 0 .995.444.995 1 0 .552-.456 1-.995 1h-8.01A.995.995 0 0 1 10 5z" fill="#414852" fill-rule="evenodd"/></svg>