<svg viewBox="0 0 24 22" xmlns="http://www.w3.org/2000/svg"><title>ic_vet</title><path d="M22 19.189c0 .447-.396.811-.879.811H2.882C2.396 20 2 19.636 2 19.19V6.226c0-.446.396-.81.879-.81h18.24c.485 0 .881.364.881.807V19.19zM10 2.018V2h3.894c.063 0 .096.027.104.027.001 0 .002 0 .002-.002v1.39h-4V2.02zm11.121 1.396c1.589.001 2.878 1.257 2.879 2.808V19.19c-.001 1.552-1.29 2.808-2.879 2.81H2.879C1.29 21.997.002 20.741 0 19.19V6.223c.002-1.552 1.29-2.808 2.879-2.809H8V2.02C8 .849 8.811 0 9.928 0h3.966C15.055 0 16 .905 16 2.02v1.396h5.121zM13 8.209h-2v4H7v2h4v4h2v-4h4v-2h-4v-4z" fill="#414852" fill-rule="evenodd"/></svg>