<svg viewBox="0 0 24 24" xmlns="http://www.w3.org/2000/svg"><title>ic_settings</title><path d="M14.417 0h-4.89c-.345 0-.556.154-.632.462l-.46 3.173c-.422.153-1.113.557-2.072 1.211L3.257 3.635a.679.679 0 0 0-.234-.048c-.192 0-.344.112-.456.336L.092 8.02c-.153.307-.115.576.117.807l2.645 1.961c0 .116-.01.308-.028.577-.02.27-.03.481-.03.635 0 .154.01.365.03.635.019.269.028.461.028.577L.266 15.173c-.27.192-.308.462-.116.807l2.475 4.097c.105.239.249.36.428.36.08 0 .167-.024.262-.072l3.106-1.211c.806.576 1.496.981 2.07 1.211l.46 3.173c.078.308.289.462.634.462h4.889c.345 0 .556-.154.633-.462l.46-3.173c.422-.153 1.112-.557 2.07-1.211l3.108 1.211a.674.674 0 0 0 .234.048c.192 0 .344-.112.456-.336l2.473-4.097c.154-.307.115-.576-.115-.807l-2.704-1.961c.039-.232.058-.635.058-1.212a9 9 0 0 0-.03-.635 9.46 9.46 0 0 1-.028-.577l2.589-1.961c.269-.192.307-.462.115-.807L21.32 3.923c-.133-.239-.294-.36-.481-.36a.589.589 0 0 0-.267.072l-3.05 1.211c-.804-.576-1.495-.981-2.07-1.211L15.049.462C14.973.154 14.762 0 14.417 0m-1.188 2l.239 1.887.148 1.166 1.092.438c.29.116.814.382 1.65.981l.889.636 1.015-.403 1.936-.769 1.25 2.071-1.566 1.187-.793.601v.993c0 .145.01.384.035.72.014.209.023.373.023.492 0 .665-.027.865-.03.884l-.203 1.22 1 .726 1.636 1.187-1.23 2.037-1.955-.763-.983-.384-.871.595c-1.197.815-1.588.97-1.63.984l-1.122.41-.171 1.182-.28 1.922H10.75l-.28-1.922-.164-1.14-1.07-.429c-.291-.116-.814-.382-1.65-.981l-.881-.632-1.011.395-1.955.763-1.245-2.06 1.569-1.188.79-.601v-.993c0-.145-.008-.384-.032-.72A7.489 7.489 0 0 1 4.797 12c0-.119.009-.283.024-.492.024-.336.033-.575.033-.72V9.781l-.81-.599-1.6-1.188L3.68 5.946l1.956.763.982.384.87-.595c1.199-.815 1.59-.97 1.63-.984l1.123-.41.172-1.182L10.692 2h2.537zm-1.284 6c-1.11 0-2.049.384-2.819 1.15-.769.768-1.154 1.717-1.154 2.85s.385 2.082 1.154 2.85c.77.766 1.71 1.15 2.82 1.15 1.108 0 2.057-.384 2.845-1.15.787-.768 1.181-1.717 1.181-2.85s-.394-2.082-1.18-2.85C14.002 8.384 13.053 8 11.944 8zm0 2c.59 0 1.036.18 1.45.583.4.389.577.826.577 1.417 0 .591-.178 1.028-.577 1.417-.414.403-.86.583-1.45.583-.58 0-1.013-.175-1.407-.567-.392-.391-.566-.832-.566-1.433 0-.601.174-1.042.566-1.433.394-.392.827-.567 1.407-.567z" fill="#414852" fill-rule="evenodd"/></svg>