<svg viewBox="0 0 24 24" xmlns="http://www.w3.org/2000/svg"><title>ic_activity</title><path d="M0 2.005C0 .898.897 0 2.005 0h19.99C23.102 0 24 .897 24 2.005v19.99A2.005 2.005 0 0 1 21.995 24H2.005A2.005 2.005 0 0 1 0 21.995V2.005zm2 .987v18.016a1 1 0 0 0 .992.992h18.016a1 1 0 0 0 .992-.992V2.992A1 1 0 0 0 21.008 2H2.992A1 1 0 0 0 2 2.992zM5 12c0-.552.444-1 1-1 .552 0 1 .444 1 1v3c0 .552-.444 1-1 1-.552 0-1-.444-1-1v-3zm4-3.003C9 8.447 9.444 8 10 8c.552 0 1 .453 1 .997v6.006c0 .55-.444.997-1 .997-.552 0-1-.453-1-.997V8.997zm4-3.995a.999.999 0 1 1 2 0v9.996a.999.999 0 1 1-2 0V5.002zM17 14a.997.997 0 0 1 1-1c.552 0 1 .443 1 .999v1.002A.997.997 0 0 1 18 16c-.552 0-1-.443-1-.999v-1.002zM4 19c0-.552.445-1 1-1h14c.552 0 1 .444 1 1 0 .552-.445 1-1 1H5c-.552 0-1-.444-1-1z" fill="#414852" fill-rule="evenodd"/></svg>