<svg class="icon" viewBox="0 0 1024 1024" xmlns="http://www.w3.org/2000/svg"><path fill="#8a8a8a" d="M495.486 920.537V267.124s-88.772-74.916-214.703-74.916c-125.93 0-214.701 66.59-214.701 66.59v661.739s88.772-64.51 214.7-64.51c125.931 0 214.704 64.51 214.704 64.51zm462.432 0V267.124s-88.773-74.916-214.7-74.916c-125.931 0-214.704 66.59-214.704 66.59v661.739s88.772-64.51 214.703-64.51c125.93 0 214.701 64.51 214.701 64.51zm66.06-591.804H990.95v629.05H594.577v33.105H429.422v-33.105H33.051v-629.05H.02V990.89h396.371V1024h233.28l-2.064-33.11h396.368V328.733h.003z"/></svg>