<svg class="icon" viewBox="0 0 1024 1024" xmlns="http://www.w3.org/2000/svg"><path fill="#8a8a8a" d="M512 1024a136.346 136.346 0 0 0 136.525-136.602h-273.05A136.525 136.525 0 0 0 512 1024zm364.109-273.05c-45.517 0-45.517-180.812-45.517-180.812V443.57c0-159.385-96.41-293.939-228.787-337.613A91.085 91.085 0 0 0 512 0a91.085 91.085 0 0 0-89.78 106.06c-125.695 43.828-228.812 178.356-228.812 337.537v125.312s0 180.454-44.34 182.041c-26.418 0-46.668 20.352-46.668 45.492 0 25.292 20.378 45.49 45.491 45.49h728.192c25.242 0 45.491-20.351 45.491-45.49a45.363 45.363 0 0 0-45.465-45.492z"/></svg>