<svg class="icon" viewBox="0 0 1024 1024" xmlns="http://www.w3.org/2000/svg"><path fill="#8a8a8a" d="M511.488 1023.488C226.816 1023.488 0 796.672 0 511.488S226.816 0 511.488 0s511.488 226.816 511.488 511.488-226.304 512-511.488 512zm-66.56-133.632H578.56V756.224H444.928v133.632zM266.752 444.928h133.632c0-57.856 13.312-133.632 89.088-133.632s115.712 17.92 115.712 66.56c0 62.464-4.608 66.56-66.56 111.104-57.856 39.936-97.792 66.56-97.792 133.632v89.088h133.632c0-102.4 31.232-111.104 102.4-182.272 35.84-35.84 57.856-62.464 57.856-173.568 0-84.48-102.4-164.864-208.896-168.96-112.128 0-259.072 39.936-259.072 258.048z"/></svg>