<svg class="icon" viewBox="0 0 1024 1024" xmlns="http://www.w3.org/2000/svg"><path d="M652.8 560.448a12.8 12.8 0 0 0-12.8 12.8v144.64c0 7.04 5.76 12.8 12.8 12.8a12.8 12.8 0 0 0 12.8-12.8v-144.64a12.8 12.8 0 0 0-12.8-12.8zm-140.8 0a12.8 12.8 0 0 0-12.8 12.8v144.64c0 7.04 5.76 12.8 12.8 12.8a12.8 12.8 0 0 0 12.8-12.8v-144.64a12.8 12.8 0 0 0-12.8-12.8z"/><path d="M512 32a480 480 0 1 0 0 960 480 480 0 0 0 0-960zm264.96 458.176a30.976 30.976 0 0 1-30.912 30.976h-6.4v210.56A36.288 36.288 0 0 1 703.36 768H320.576a36.288 36.288 0 0 1-36.288-36.288v-210.56h-6.336a30.976 30.976 0 0 1-30.912-30.976V389.12c0-17.088 13.888-30.912 30.912-30.912h167.424v-111.04c0-27.072 22.016-49.088 49.088-49.088h35.072c27.072 0 49.088 22.016 49.088 49.088v111.04h167.424c17.088 0 30.912 13.888 30.912 30.912v101.056z"/><path d="M746.048 383.808H552.96V247.104a23.552 23.552 0 0 0-23.488-23.488H494.4a23.552 23.552 0 0 0-23.488 23.488v136.704H277.888a5.376 5.376 0 0 0-5.312 5.312v101.056c0 2.88 2.432 5.312 5.312 5.312h468.096a5.376 5.376 0 0 0 5.312-5.312V389.12a5.312 5.312 0 0 0-5.248-5.312zM371.2 560.448a12.8 12.8 0 0 0-12.8 12.8v144.64c0 7.04 5.76 12.8 12.8 12.8a12.8 12.8 0 0 0 12.8-12.8v-144.64a12.8 12.8 0 0 0-12.8-12.8z"/></svg>