<svg class="icon" viewBox="0 0 1024 1024" xmlns="http://www.w3.org/2000/svg"><path fill="#8a8a8a" d="M505.862 651.157c-116.503 0-211.619 82.717-214.519 185.371-.045 1.605-.07 3.213-.07 4.827 0 2.408.016 4.376.07 6.2.096 3.305 0 62.347 0 62.347 63.715 34.797 136.806 54.579 214.519 54.579 77.741 0 150.856-19.797 214.587-54.617v-68.509c0-104.876-96.263-190.198-214.587-190.198zm0-583.092c-247.539 0-448.208 200.669-448.208 448.208 0 148.067 71.803 279.358 182.483 360.971 0 0-.029-33.581-.029-35.889 0-64.993 27.995-125.938 78.829-171.609 24.589-22.092 53.121-39.296 84.133-51.098-46.132-32.395-76.288-85.996-76.288-146.647 0-98.903 80.176-179.079 179.079-179.079S684.94 373.098 684.94 472.001c0 60.651-30.157 114.252-76.288 146.647 31.013 11.802 59.544 29.006 84.133 51.098 50.835 45.671 78.829 106.616 78.829 171.609l.51 35.492c110.375-81.64 181.946-212.746 181.946-360.574.001-247.539-200.669-448.208-448.207-448.208zm90.448 494.383c24.159-24.159 37.465-56.282 37.465-90.448s-13.305-66.289-37.465-90.448c-24.159-24.159-56.282-37.465-90.448-37.465s-66.289 13.305-90.448 37.465c-24.159 24.159-37.465 56.282-37.465 90.448s13.305 66.289 37.465 90.448 56.282 37.465 90.448 37.465 66.289-13.306 90.448-37.465z"/></svg>