<svg class="icon" viewBox="0 0 1024 1024" xmlns="http://www.w3.org/2000/svg"><path fill="#8a8a8a" d="M362.905 455.825h297.922c41.023 0 74.403-33.38 74.403-74.422v-241.86c0-41.024-33.38-74.423-74.403-74.423H362.905c-41.033 0-74.412 33.398-74.412 74.422v241.86c-.001 41.042 33.38 74.423 74.412 74.423zm-17.81-310.175c0-13.192 10.734-23.928 23.908-23.928h285.713c13.176 0 23.91 10.736 23.91 23.928v230.53c0 13.194-10.734 23.91-23.91 23.91H369.004c-13.175 0-23.908-10.734-23.908-23.91V145.65zm536.14 205.68h-64.193c-42.83 0-81.832 36.706-81.832 77.025v87.795c-7.518-2.585-15.488-4.302-23.89-4.302H313.27c-8.414 0-16.364 1.717-23.918 4.302v-87.795c0-42.489-32.278-77.024-71.947-77.024h-65.71c-42.353 0-86.152 36.705-86.152 77.024v386.403c0 38.982 42.57 86.583 86.151 86.583h81.09v55.752h55.708v-55.752h446.032v55.752h55.736v-55.77l90.975.018c41.855 0 76.282-45.614 76.282-86.583V428.355c0-43.193-36.45-77.024-76.282-77.043v.019zM289.369 591.51c0-13.193 10.716-23.927 23.891-23.927h398.06c13.158 0 23.855 10.699 23.891 23.836v63.217c-.036 13.156-10.732 23.82-23.89 23.82H313.268c-13.175 0-23.9-10.718-23.9-23.893V591.51zm612.414 218.91c0 17.404-12.054 36.073-20.548 36.073h-729.55c-11.937 0-30.407-21.921-30.407-36.073V428.355c0-12.398 16.192-26.53 30.407-26.53h60.479c13.266 0 21.451 13.771 21.451 26.53v310.193h557.348V428.355c0-12.145 16.97-26.53 31.3-26.53h58.972c12.849 0 20.548 13.482 20.548 26.53v382.064zm0 0"/></svg>