<svg class="icon" viewBox="0 0 1024 1024" xmlns="http://www.w3.org/2000/svg"><path fill="#8a8a8a" d="M527.375 107.396c-214.293 0-388.016 173.723-388.016 388.054 0 214.29 173.723 388.016 388.016 388.016 214.332 0 388.053-173.725 388.053-388.016 0-214.331-173.72-388.054-388.053-388.054zM302.66 562.946c-37.299 0-67.536-30.247-67.536-67.536 0-37.248 30.237-67.496 67.536-67.496 37.27 0 67.516 30.248 67.516 67.496 0 37.29-30.246 67.536-67.516 67.536zm224.735 0c-37.29 0-67.517-30.247-67.517-67.536 0-37.248 30.228-67.496 67.517-67.496 37.27 0 67.517 30.248 67.517 67.496-.001 37.29-30.247 67.536-67.517 67.536zm224.714 0c-37.248 0-67.496-30.247-67.496-67.536 0-37.248 30.248-67.496 67.496-67.496 37.288 0 67.557 30.248 67.557 67.496 0 37.29-30.268 67.536-67.557 67.536z"/></svg>