<svg class="icon" viewBox="0 0 1024 1024" xmlns="http://www.w3.org/2000/svg"><path fill="#8a8a8a" d="M293.293 739.086H471.05v82.564h199.359v-82.564h163.039L943.549 992H214.575l78.718-252.914zm-70.077-349.103H80.403v-78.908l152.498-15.621C269.792 144.285 406.195 32 568.806 32c190.956 0 345.828 154.872 345.828 345.876 0 4.036-.142 8.071-.285 12.107h-44.582c-2.707 81.567-36.891 155.205-90.777 209.045-56.309 56.261-133.935 91.014-219.774 91.014-85.792 0-163.513-34.754-219.68-91.014-53.887-53.888-88.118-127.525-90.825-209.045h-25.495zm557.105 0H338.16c2.659 56.878 26.872 108.155 64.569 145.852 40.072 40.072 95.383 64.76 156.487 64.76 61.151 0 116.511-24.736 156.534-64.76 37.745-37.745 61.911-89.02 64.569-145.852z"/></svg>