<svg class="icon" viewBox="0 0 1024 1024" xmlns="http://www.w3.org/2000/svg"><path fill="#8a8a8a" d="M580.611 398.962c0 46.463-2.16 77.333-3.642 97.964l-.398 6.058c-.513 7.373-.967 14.31-.967 18.893l3.13 17.81 13.202 8.62c16.104 10.53 32.493 15.622 50.133 15.622 41.994 0 87.347-30.756 124.395-84.388 35.282-50.988 57.19-115.518 57.19-168.44 0-26.972-5.292-56.791-15.307-86.126-9.733-28.652-24.016-56.707-41.314-81.175-17.696-24.896-38.127-45.439-58.954-59.24-39.15-26.488-80.405-30.016-116.767-10.156-37.785 19.945-56.562 45.324-59.123 79.81-2.333 31.667 8.878 68.57 21.34 109.77 12.686 41 27.082 87.434 27.082 134.978zm38.24-273.23c18.439-9.93 35.737-7 56.795 7.227 15.134 10.044 30.272 25.437 43.813 44.5 14.114 19.945 25.721 42.85 33.689 66.295 8.023 23.386 12.234 46.689 12.234 67.346 0 41.058-18.38 94.149-46.834 135.292-30.275 43.73-60.093 59.265-76.478 59.265-2.39 0-4.724-.282-7.228-.993l.286-3.786c1.477-21.338 3.754-53.518 3.754-101.916 0-56.365-16.445-109.515-30.216-153.986-10.242-33.745-19.917-65.612-18.322-86.466.511-7.342 1.308-18.41 28.507-32.777zM541.86 552.437l.684-15.964c1.252-26.801-7.114-49.82-24.81-68.456-29.65-31.24-83.823-49.167-148.693-49.167-54.515 0-108.35 13.117-147.612 35.937-36.704 21.11-71.131 55.424-96.968 96.568C98.228 592.81 83.378 636.91 82.58 675.606c-.34 20.828 3.359 39.634 11.097 55.967 8.422 17.667 21.453 32.065 38.468 42.593 21.736 13.913 41.655 20.686 60.946 20.686 45.41 0 82.682-40.12 122.232-82.57 29.248-31.495 62.481-67.176 103.509-90.963 40.117-23.248 67.944-36.76 86.665-45.809 8.478-4.183 17.127-8.506 22.137-11.38l14.227-11.694zm-61.915-29.309c-19.345 9.363-48.423 23.502-90.364 47.776-48.54 28.165-86.438 68.91-116.938 101.66-29.25 31.469-59.523 64.018-79.553 64.018-7.683 0-17.64-3.868-29.875-11.694-7.968-4.922-13.315-10.755-16.901-18.295-3.814-8.08-5.692-18.183-5.463-29.874.57-27.743 12.519-62.084 32.948-94.32 20.883-33.264 48.084-60.66 76.765-77.163 30.785-17.87 73.919-28.11 118.476-28.11 56.791 0 92.243 16.015 106.468 31.012 3.813 4.013 6.316 8.221 7.626 13.43-1.08.508-2.106 1.05-3.189 1.56zM932.74 724.97c-26.859-18.351-65.156-27.143-105.783-36.447-41.998-9.589-89.57-20.43-130.541-44.073-40.289-23.246-65.953-40.486-85.755-53.916-7.057-4.695-13.831-9.19-18.268-11.811l-16.958-6.342-14.225 7.254c-22.762 11.61-50.19 36.02-51.67 86.613-.91 38.78 13.543 84.904 40.913 129.94 26.974 43.875 63.621 81.26 100.61 102.543 39.433 22.734 92.184 35.793 144.706 35.793 47.12 0 90.367-10.498 121.777-29.562 34.543-21.11 52.98-50.959 54.803-89 1.592-42.708-11.04-71.643-39.609-90.992zm-45.525 130.226c-48.423 29.394-149.655 26.036-207.073-6.942-28.795-16.615-57.987-46.716-79.952-82.426-20.942-34.483-33.063-71.185-32.38-98.02.399-14.765 4.269-23.327 10.016-29.164a100.45 100.45 0 0 0 2.902 1.939c17.64 12.035 44.444 30.073 86.552 54.343 48.597 28.027 102.998 40.431 146.701 50.387 33.46 7.683 68.115 15.622 85.98 27.827 6.09 4.125 15.252 10.356 14.171 40.375-.91 18.239-8.933 30.7-26.917 41.681zM421.563 238.661c.113.113 13.828 12.661 15.705 34.056 2.048 22.365-8.82 47.715-32.15 75.342-10.414 12.292-8.877 30.675 3.414 41.057 5.52 4.638 12.176 6.886 18.835 6.886 8.25 0 16.502-3.5 22.249-10.33 33.802-39.947 49.165-79.694 45.694-118.162-4.04-45.61-33.29-71.018-35.794-73.01-22.704-20.315-34.598-42.451-34.824-42.905-5.01-9.333-4.156-14.597-3.073-17.755 3.642-10.925 18.494-19.803 23.444-22.079 14.625-6.515 21.283-23.615 14.854-38.297-6.43-14.737-23.786-21.367-38.353-14.993-4.326 1.877-42.28 19.404-54.971 56.221-5.008 14.37-7.852 37.216 6.602 64.105.624 1.278 16.501 31.438 48.368 59.864zm-138.678-.627c.171.171 17.47 16.133 18.381 40.687.797 21.17-10.3 44.102-33.006 68.144-11.04 11.693-10.527 30.131 1.14 41.17a29.121 29.121 0 0 0 20.028 7.967c7.74 0 15.422-3.073 21.17-9.135 34.313-36.305 50.76-73.918 48.824-111.79-2.446-48.738-34.54-77.76-37.84-80.577-22.705-20.316-34.598-42.452-34.826-42.906-5.009-9.333-4.155-14.597-3.072-17.755 3.641-10.925 18.493-19.803 23.443-22.079 14.625-6.515 21.284-23.615 14.854-38.297-6.43-14.738-23.842-21.368-38.354-14.993-4.324 1.877-42.279 19.404-54.969 56.221-5.008 14.37-7.853 37.216 6.6 64.105.624 1.28 16.5 31.44 47.627 59.238zm-137.71.171c7.456 6.744 41.997 43.618-15.591 109.487-10.64 12.12-9.39 30.528 2.731 41.112 5.52 4.838 12.348 7.2 19.178 7.2 8.08 0 16.16-3.357 21.907-9.959 33.859-38.694 49.566-77.732 46.663-116-3.586-46.662-33.631-73.238-36.42-75.541-22.705-20.316-34.599-42.452-34.825-42.906-5.01-9.333-4.156-14.597-3.073-17.755 3.643-10.924 18.494-19.803 23.445-22.079 14.625-6.515 21.283-23.615 14.854-38.297-6.431-14.737-23.788-21.367-38.354-14.993-4.326 1.878-42.28 19.404-54.97 56.221-5.01 14.37-7.853 37.216 6.601 64.105.623 1.275 16.5 31.435 47.855 59.405z"/></svg>