<?xml version="1.0" standalone="no"?><!DOCTYPE svg PUBLIC "-//W3C//DTD SVG 1.1//EN" "http://www.w3.org/Graphics/SVG/1.1/DTD/svg11.dtd"><svg class="icon" width="16px" height="16.00px" viewBox="0 0 1024 1024" version="1.1" xmlns="http://www.w3.org/2000/svg"><path d="M723.626667 409.6h-460.8c-10.24 0-20.48 10.24-20.48 20.48s10.24 20.48 20.48 20.48h460.8c10.24 0 20.48-10.24 20.48-20.48-3.413333-10.24-10.24-20.48-20.48-20.48z m133.12-327.68h-730.453334c-30.72 0-58.026667 23.893333-58.026666 58.026667v733.866666c0 30.72 27.306667 58.026667 58.026666 58.026667h385.706667c10.24 0 20.48-10.24 20.48-20.48s-10.24-17.066667-20.48-17.066667h-385.706667c-10.24 0-20.48-6.826667-20.48-20.48v-730.453333c0-10.24 6.826667-20.48 20.48-20.48h730.453334c10.24 0 20.48 10.24 20.48 20.48v389.12c0 10.24 10.24 20.48 20.48 20.48s20.48-10.24 20.48-20.48v-389.12c-3.413333-34.133333-27.306667-61.44-61.44-61.44z m-133.12 174.08h-460.8c-10.24 0-20.48 10.24-20.48 20.48s10.24 20.48 20.48 20.48h460.8c10.24 0 20.48-10.24 20.48-20.48-3.413333-10.24-10.24-20.48-20.48-20.48z"  /><path d="M750.933333 993.28c-119.466667 0-215.04-95.573333-215.04-215.04s95.573333-215.04 215.04-215.04 215.04 95.573333 215.04 215.04c-3.413333 116.053333-98.986667 215.04-215.04 215.04z m0-395.946667c-98.986667 0-180.906667 81.92-180.906666 180.906667s81.92 180.906667 180.906666 180.906667 180.906667-81.92 180.906667-180.906667c-3.413333-102.4-81.92-180.906667-180.906667-180.906667z"  /><path d="M815.786667 747.52c-3.413333 0-3.413333-3.413333-10.24-3.413333h-23.893334l30.72-54.613334c3.413333-3.413333 3.413333-6.826667 3.413334-10.24 0-3.413333 0-3.413333-3.413334-6.826666h-3.413333-3.413333s-3.413333 0-3.413334 3.413333c0 0-3.413333 3.413333-3.413333 6.826667l-34.133333 64.853333h-23.893334l-37.546666-64.853333c-3.413333-3.413333-3.413333-6.826667-6.826667-6.826667s-6.826667 0-6.826667 3.413333c-3.413333 0-3.413333 3.413333-3.413333 6.826667s0 6.826667 3.413333 10.24l30.72 51.2h-23.893333c-3.413333 0-6.826667 0-10.24 3.413333-3.413333 0-3.413333 3.413333-3.413333 6.826667s0 6.826667 3.413333 6.826667c0 0 3.413333 3.413333 10.24 3.413333h47.786667v30.72h-37.546667c-3.413333 0-6.826667 0-10.24 3.413333-3.413333 0-3.413333 3.413333-3.413333 6.826667s0 6.826667 3.413333 6.826667c0 0 3.413333 3.413333 10.24 3.413333h37.546667v51.2c0 3.413333 0 6.826667 3.413333 6.826667 0 3.413333 3.413333 3.413333 10.24 3.413333 3.413333 0 6.826667 0 10.24-3.413333 3.413333-3.413333 3.413333-3.413333 3.413333-10.24V819.2h37.546667c3.413333 0 6.826667 0 10.24-3.413333 3.413333 0 3.413333-3.413333 3.413333-6.826667s0-6.826667-3.413333-6.826667-3.413333-3.413333-10.24-3.413333h-37.546667v-30.72h47.786667c3.413333 0 6.826667 0 10.24-3.413333 3.413333 0 3.413333-3.413333 3.413333-6.826667-13.653333-6.826667-13.653333-6.826667-17.066666-10.24z"  /></svg>