<svg class="icon" viewBox="0 0 1024 1024" xmlns="http://www.w3.org/2000/svg"><path fill="#8a8a8a" d="M802.361 199.303H713.02V177.9c0-9.38-1.9-18.315-5.338-26.444a68.015 68.015 0 0 0-14.56-21.593c-9.22-9.221-21.079-15.804-34.347-18.52a68.198 68.198 0 0 0-13.691-1.379h-43.741V65.29H422.658v44.673h-43.742c-9.38 0-18.315 1.9-26.443 5.339-16.256 6.875-29.28 19.898-36.154 36.153-3.438 8.129-5.338 17.063-5.338 26.444v21.404h-89.342c-49.343 0-89.342 40-89.342 89.342v580.722c0 49.342 40 89.342 89.342 89.342H802.36c49.343 0 89.342-40 89.342-89.342V288.645c0-49.343-40-89.342-89.342-89.342zm-446.71 44.672V177.9c0-6.414 2.61-12.232 6.821-16.444a23.333 23.333 0 0 1 7.396-4.99 23.138 23.138 0 0 1 9.048-1.831h88.413V109.96h89.341v44.673h88.413c6.414 0 12.232 2.61 16.444 6.822 4.211 4.212 6.82 10.03 6.82 16.444V288.648H355.652v-44.673zm491.38 625.392c0 24.633-20.039 44.672-44.67 44.672H221.638c-24.633 0-44.671-20.039-44.671-44.672V288.645c0-24.631 20.038-44.671 44.67-44.671h89.343v89.344h402.038v-89.344h89.342c24.631 0 44.671 20.039 44.671 44.671v580.722zm-277.39-379.696c-22.106 0-42.566 8.093-57.833 21.943-15.335-14.09-35.346-21.943-57.453-21.943-42.817 0-76.364 41.116-76.364 93.596 0 100.99 118.014 168.716 123.041 171.551a22.315 22.315 0 0 0 10.971 2.88c3.784 0 7.568-.96 10.972-2.88 5.027-2.835 123.041-70.562 123.041-171.55 0-52.481-33.546-93.597-76.374-93.597zM512.005 708.97c-26.054-17.45-89.342-65.982-89.342-125.703 0-23.535 12.117-48.924 31.693-48.924 22.662 0 33.165 15.225 37.418 24.32 3.752 8.005 12.128 12.847 20.754 12.869a22.329 22.329 0 0 0 20.121-13.83c4.657-11.297 16.829-23.36 36.994-23.36 19.587 0 31.704 25.39 31.704 48.924 0 59.722-63.288 108.255-89.342 125.704z"/></svg>